<svg width="30" height="22" viewBox="0 0 30 22" fill="none" xmlns="http://www.w3.org/2000/svg">
<path d="M22.7556 0.0164375C24.0049 0.01644 25.3269 -0.181421 26.2468 0.795734C26.5056 1.07028 26.7882 1.46161 26.8777 1.82601C27.0756 2.63367 26.9991 3.67049 26.9988 4.49788V8.76937C27.3348 8.86674 27.6551 9.01255 27.95 9.20101C28.8106 9.74665 29.4166 10.6151 29.6306 11.6112C29.8124 12.4372 29.711 13.9718 29.7224 14.868C29.7391 16.1653 29.7625 17.5791 29.6453 18.867C29.5751 19.6419 29.487 20.4538 29.3933 21.2108C29.3003 21.9634 28.5886 21.9701 28.0076 21.9364C26.3667 21.9793 26.3478 21.8801 26.1502 20.3162C26.0753 19.7 25.996 19.0839 25.9119 18.4686L24.5095 18.4666L3.82204 18.4676C3.77415 19.0188 3.5703 20.9864 3.41774 21.3983C3.34071 21.6061 3.21438 21.7638 3.00954 21.8553C2.70544 21.991 1.12581 21.9795 0.823014 21.8524C0.608442 21.7624 0.492159 21.616 0.414811 21.4002C0.248343 20.9358 0.240768 20.1828 0.188249 19.6795C0.131904 19.1402 0.0476274 18.5908 0.0241864 18.0496C-0.0246136 16.9214 0.0218656 15.7734 0.0212567 14.6424C0.0208237 13.7926 -0.0433735 12.7568 0.0534832 11.9364C0.10345 11.5453 0.213988 11.1642 0.381608 10.8075C0.871518 9.77311 1.66134 9.15226 2.71755 8.77132L2.71657 4.59163C2.71557 4.03805 2.67778 2.59705 2.77809 2.11702C2.8733 1.66489 3.08419 1.24519 3.38942 0.898273C3.91723 0.306329 4.52809 0.070754 5.30251 0.0232735C5.41735 0.0199683 5.53236 0.0182201 5.64723 0.0174141L18.9822 0.0164375H22.7556ZM27.0193 18.4666C27.1006 19.2539 27.2455 20.0737 27.3191 20.8465C27.5421 20.8502 28.1909 20.8936 28.3357 20.8045C28.3558 20.7289 28.3557 20.7457 28.3572 20.6698C28.432 20.0421 28.5569 19.0834 28.5857 18.4696C28.0635 18.4662 27.5412 18.4648 27.0193 18.4666ZM1.15602 18.4686C1.23732 19.2259 1.35144 20.0977 1.40798 20.8494C1.66801 20.851 2.16153 20.8673 2.40114 20.8348C2.46159 20.7504 2.45531 20.6569 2.46462 20.5496C2.55853 19.8557 2.6472 19.1608 2.73122 18.4657C2.20616 18.4626 1.68108 18.463 1.15602 18.4686ZM3.98024 9.69124C3.87779 9.69307 3.77499 9.6964 3.67262 9.70101C2.89997 9.77806 2.23439 10.0694 1.73415 10.6815C1.45483 11.0278 1.26255 11.4363 1.17262 11.8719C1.07491 12.3496 1.10731 13.4755 1.10817 14.0252L1.1111 17.3748H25.8259C26.7453 17.3755 27.7146 17.3924 28.6297 17.3729L28.6336 14.1268C28.6342 13.5075 28.6731 12.2624 28.5349 11.7196C28.4165 11.2467 28.1703 10.8151 27.824 10.4725C27.4217 10.0717 26.9007 9.81187 26.3386 9.73128C25.8228 9.65734 24.3726 9.69193 23.78 9.6932H8.98903C7.33216 9.69322 5.63154 9.67099 3.98024 9.69124ZM23.3474 1.11409L11.0086 1.11605L7.26735 1.11507C6.59238 1.11458 5.77976 1.09417 5.11305 1.12874C4.43079 1.28437 3.86955 1.73608 3.82106 2.48323C3.7782 3.14429 3.80238 3.8361 3.80251 4.50179L3.80446 8.59652L4.58864 8.59847C4.58505 7.47597 4.38928 6.24101 5.21071 5.36019C6.03787 4.47332 6.99097 4.61109 8.09548 4.61019L10.2527 4.60921L11.6941 4.61019C12.6742 4.61086 13.3113 4.56476 14.0779 5.31331C14.9261 6.14172 14.7423 7.06333 14.7556 8.13753C14.7572 8.27623 14.7221 8.45135 14.7791 8.55843C14.8756 8.61218 14.8239 8.59737 14.9451 8.59066C14.9985 8.49991 14.9907 8.13204 14.9802 8.01253C14.8513 6.53761 15.1321 5.13956 16.7478 4.68929C17.2429 4.55145 17.961 4.60881 18.5134 4.60921L20.7332 4.61019L22.0925 4.60823C23.0571 4.60782 23.7134 4.56783 24.4832 5.29573C25.3704 6.13519 25.1491 7.41264 25.1658 8.59456L25.9168 8.60042V4.36995C25.9177 3.71079 25.9534 2.92362 25.8757 2.27132C25.8488 2.04481 25.6384 1.73919 25.4841 1.56624C24.972 0.991864 24.0893 1.11093 23.3474 1.11409ZM13.6775 8.59847C13.6879 6.7684 14.001 5.512 11.6394 5.69124C11.3092 5.71626 10.8499 5.68198 10.5056 5.69124C9.30074 5.72381 8.05974 5.65136 6.85719 5.6971C6.80705 5.69899 6.75689 5.70104 6.7068 5.70394C5.34577 6.04825 5.66781 7.48213 5.66383 8.59359L12.7107 8.59847C13.0304 8.59828 13.3585 8.59485 13.6775 8.59847ZM21.3103 5.68929L17.4998 5.69222C17.3591 5.69265 17.2372 5.69378 17.0965 5.70296C15.7377 6.06689 16.0654 7.47649 16.0574 8.59652H23.1082C23.4315 8.59553 23.762 8.59179 24.0847 8.59456C24.0906 7.94251 24.1431 7.21377 24.0281 6.57698C23.965 6.22886 23.5023 5.76583 23.1472 5.72835C22.5523 5.66558 21.9126 5.68923 21.3103 5.68929Z" fill="black"/>
</svg>
