<svg width="16" height="25" viewBox="0 0 16 25" fill="none" xmlns="http://www.w3.org/2000/svg">
<path fill-rule="evenodd" clip-rule="evenodd" d="M10.3356 0.208369C10.8695 0.207806 11.5121 0.128292 11.9489 0.462276C12.2188 0.668864 12.3654 0.956905 12.4127 1.28356C12.5243 2.05377 11.9515 2.40368 11.5114 2.89978C11.2535 3.19465 11.3123 3.98401 11.317 4.40856C11.324 5.03661 11.2674 5.92203 11.4167 6.51794C11.5633 7.10233 12.0675 7.68614 12.4528 8.14782C13.6263 9.54168 14.6856 10.9452 14.9518 12.807C15.4285 16.14 14.4776 19.4522 12.9489 22.3802L12.5075 23.2074C12.2065 23.786 12.0372 24.2221 11.3043 24.3373C10.8446 24.363 10.2591 24.3473 9.7897 24.347L7.08364 24.3461L5.07095 24.347C4.71274 24.3473 4.33351 24.37 3.9772 24.3353C3.76634 24.3149 3.52982 24.2287 3.36196 24.098C2.99378 23.8112 2.78714 23.2491 2.5729 22.8441C1.4018 20.6312 0.566849 18.5439 0.290675 16.0336C0.0524755 13.8682 0.233081 11.7954 1.45864 9.93493C1.99106 9.12684 2.63367 8.39815 3.23599 7.64294C3.5342 7.26902 3.77469 6.88151 3.89028 6.41247C3.98673 6.02074 4.01669 3.40715 3.87271 3.09118C3.60101 2.49544 2.93332 2.34653 2.85708 1.557C2.82512 1.22527 2.94255 0.87573 3.15493 0.619502C3.38157 0.346328 3.69394 0.243602 4.03384 0.213252C4.52704 0.197311 5.09271 0.209232 5.59146 0.209346L8.57778 0.210322L10.3356 0.208369ZM9.99185 1.01794L7.96743 1.01892H5.39517C4.95103 1.01907 4.44622 1.00856 4.00747 1.0238C3.30595 1.16298 3.75692 1.82817 4.08169 2.09606C4.44175 2.3931 4.70829 2.84608 4.72525 3.31384C4.74735 3.73864 4.72814 4.17293 4.73403 4.59899C4.72387 5.11253 4.76737 5.78086 4.70083 6.27673C4.65729 6.62447 4.55831 6.96312 4.40786 7.27966C3.94101 8.24126 2.90394 9.17963 2.30239 10.0941C1.84781 10.7852 1.45061 11.444 1.24771 12.2679C0.685064 14.4157 1.08728 17.091 1.78872 19.1547C1.94349 19.6194 2.11707 20.0782 2.30923 20.5287C2.49168 20.9563 3.63448 23.3588 3.8854 23.5004C3.96132 23.5434 4.10151 23.5419 4.18911 23.5453C4.65941 23.5629 5.13431 23.5492 5.60513 23.5492H10.1872C10.5068 23.549 10.9542 23.5623 11.2663 23.5433C11.3458 23.5143 11.4608 23.4691 11.5065 23.391C12.9949 20.8381 14.1413 18.0793 14.2829 15.0912C14.3374 13.9413 14.2474 12.8164 13.8522 11.725C13.3536 10.3489 12.3331 9.28917 11.442 8.15954C11.0562 7.67035 10.7352 7.14551 10.611 6.52478C10.4893 5.90122 10.5637 5.21974 10.5417 4.5863C10.5603 3.78356 10.3815 2.90889 11.0065 2.28942C11.309 1.98978 11.9219 1.52061 11.4782 1.09021C11.148 0.9746 10.3721 1.01735 9.99185 1.01794Z" fill="black"/>
<path d="M10.3356 0.208369L10.3354 0.0083694H10.3354L10.3356 0.208369ZM11.9489 0.462276L12.0704 0.303458L12.0704 0.303402L11.9489 0.462276ZM12.4127 1.28356L12.6107 1.25489L12.6107 1.25487L12.4127 1.28356ZM11.5114 2.89978L11.3618 2.76704L11.3608 2.76811L11.5114 2.89978ZM11.317 4.40856L11.517 4.40634V4.40632L11.317 4.40856ZM11.4167 6.51794L11.2226 6.56654L11.2227 6.56663L11.4167 6.51794ZM12.4528 8.14782L12.2992 8.27596L12.2998 8.27664L12.4528 8.14782ZM14.9518 12.807L14.7538 12.8353L14.7538 12.8353L14.9518 12.807ZM12.9489 22.3802L13.1253 22.4744L13.1262 22.4728L12.9489 22.3802ZM12.5075 23.2074L12.331 23.1132L12.33 23.1151L12.5075 23.2074ZM11.3043 24.3373L11.3155 24.537L11.3255 24.5364L11.3354 24.5348L11.3043 24.3373ZM9.7897 24.347L9.78979 24.147H9.78977L9.7897 24.347ZM7.08364 24.3461L7.08372 24.1461H7.08355L7.08364 24.3461ZM5.07095 24.347L5.07085 24.147H5.07082L5.07095 24.347ZM3.9772 24.3353L3.9966 24.1363L3.99644 24.1362L3.9772 24.3353ZM3.36196 24.098L3.23906 24.2558L3.2391 24.2558L3.36196 24.098ZM2.5729 22.8441L2.74968 22.7506L2.74967 22.7506L2.5729 22.8441ZM0.290675 16.0336L0.0918745 16.0554L0.0918748 16.0554L0.290675 16.0336ZM1.45864 9.93493L1.29163 9.8249L1.29163 9.82491L1.45864 9.93493ZM3.23599 7.64294L3.07963 7.51823L3.07963 7.51824L3.23599 7.64294ZM3.89028 6.41247L4.08447 6.46033L4.08449 6.46028L3.89028 6.41247ZM3.87271 3.09118L4.0547 3.00825L4.05468 3.00819L3.87271 3.09118ZM2.85708 1.557L2.658 1.57618L2.65801 1.57623L2.85708 1.557ZM3.15493 0.619502L3.00101 0.491802L3.00095 0.491869L3.15493 0.619502ZM4.03384 0.213252L4.02737 0.0130342L4.01605 0.0140447L4.03384 0.213252ZM5.59146 0.209346L5.59152 0.00934586H5.5915L5.59146 0.209346ZM8.57778 0.210322L8.57772 0.410323L8.57801 0.410322L8.57778 0.210322ZM9.99185 1.01794L9.99194 1.21794L9.99216 1.21794L9.99185 1.01794ZM7.96743 1.01892V1.21892H7.96753L7.96743 1.01892ZM5.39517 1.01892V0.818916L5.3951 0.818916L5.39517 1.01892ZM4.00747 1.0238L4.00053 0.82392L3.98439 0.82448L3.96855 0.827623L4.00747 1.0238ZM4.08169 2.09606L4.20896 1.94179L4.20895 1.94178L4.08169 2.09606ZM4.72525 3.31384L4.52535 3.32108L4.52552 3.32423L4.72525 3.31384ZM4.73403 4.59899L4.93411 4.60296L4.93402 4.59623L4.73403 4.59899ZM4.70083 6.27673L4.5026 6.25013L4.50238 6.25188L4.70083 6.27673ZM4.40786 7.27966L4.58779 7.36701L4.5885 7.36551L4.40786 7.27966ZM2.30239 10.0941L2.1353 9.9842L2.1353 9.9842L2.30239 10.0941ZM1.24771 12.2679L1.4412 12.3186L1.44191 12.3158L1.24771 12.2679ZM1.78872 19.1547L1.97848 19.0915L1.97808 19.0903L1.78872 19.1547ZM2.30923 20.5287L2.12527 20.6071L2.12527 20.6072L2.30923 20.5287ZM3.8854 23.5004L3.98399 23.3263L3.98368 23.3262L3.8854 23.5004ZM4.18911 23.5453L4.18143 23.7451L4.18164 23.7451L4.18911 23.5453ZM5.60513 23.5492V23.3492H5.60513L5.60513 23.5492ZM10.1872 23.5492V23.7492H10.1873L10.1872 23.5492ZM11.2663 23.5433L11.2784 23.743L11.3075 23.7412L11.3349 23.7312L11.2663 23.5433ZM11.5065 23.391L11.6792 23.4919L11.6793 23.4917L11.5065 23.391ZM14.2829 15.0912L14.0831 15.0817V15.0817L14.2829 15.0912ZM13.8522 11.725L14.0402 11.6569L14.0402 11.6568L13.8522 11.725ZM11.442 8.15954L11.285 8.28339L11.285 8.2834L11.442 8.15954ZM10.611 6.52478L10.4147 6.56309L10.4149 6.56403L10.611 6.52478ZM10.5417 4.5863L10.3414 4.58164L10.3418 4.59327L10.5417 4.5863ZM11.0065 2.28942L10.8658 2.14733L10.8657 2.14738L11.0065 2.28942ZM11.4782 1.09021L11.6174 0.946639L11.5858 0.915991L11.5443 0.901443L11.4782 1.09021ZM10.3356 0.208369L10.3358 0.408369C10.6221 0.408067 10.8909 0.388216 11.1633 0.409272C11.4284 0.429769 11.6533 0.48805 11.8274 0.621149L11.9489 0.462276L12.0704 0.303402C11.8077 0.102517 11.4929 0.0335632 11.1941 0.0104621C10.9025 -0.0120801 10.583 0.00810798 10.3354 0.0083694L10.3356 0.208369ZM11.9489 0.462276L11.8273 0.621093C12.0496 0.791267 12.1738 1.02913 12.2148 1.31226L12.4127 1.28356L12.6107 1.25487C12.557 0.884676 12.3879 0.546462 12.0704 0.303458L11.9489 0.462276ZM12.4127 1.28356L12.2148 1.31224C12.2613 1.63304 12.1692 1.86078 12.0089 2.07448C11.9258 2.18541 11.8249 2.29135 11.7117 2.40531C11.6013 2.51644 11.4767 2.63749 11.3618 2.76705L11.5114 2.89978L11.661 3.0325C11.7661 2.91402 11.8782 2.80529 11.9955 2.68722C12.11 2.57197 12.2279 2.44928 12.329 2.31444C12.5373 2.03661 12.6758 1.70429 12.6107 1.25489L12.4127 1.28356ZM11.5114 2.89978L11.3608 2.76811C11.2667 2.8757 11.2119 3.01497 11.1776 3.15148C11.1427 3.2904 11.1249 3.44366 11.1161 3.59376C11.0986 3.8903 11.1148 4.21027 11.1171 4.41081L11.317 4.40856L11.517 4.40632C11.5145 4.18231 11.499 3.89532 11.5154 3.61732C11.5235 3.48016 11.5391 3.35425 11.5655 3.24896C11.5926 3.14126 11.6271 3.07129 11.6619 3.03144L11.5114 2.89978ZM11.317 4.40856L11.1171 4.41079C11.1188 4.56505 11.1166 4.73552 11.1146 4.9171C11.1126 5.09766 11.1108 5.28816 11.1135 5.47817C11.1189 5.85509 11.1421 6.24488 11.2226 6.56654L11.4167 6.51794L11.6107 6.46934C11.542 6.19509 11.5188 5.84421 11.5135 5.47243C11.5108 5.28809 11.5126 5.10223 11.5146 4.92152C11.5165 4.74183 11.5188 4.5661 11.517 4.40634L11.317 4.40856ZM11.4167 6.51794L11.2227 6.56663C11.3046 6.89305 11.4829 7.20834 11.6811 7.49313C11.8798 7.77867 12.1087 8.04769 12.2992 8.27596L12.4528 8.14782L12.6063 8.01968C12.4116 7.78627 12.1958 7.53254 12.0094 7.26466C11.8225 6.99603 11.6754 6.72722 11.6106 6.46925L11.4167 6.51794ZM12.4528 8.14782L12.2998 8.27664C13.4726 9.66959 14.4964 11.0349 14.7538 12.8353L14.9518 12.807L15.1498 12.7787C14.8748 10.8555 13.7801 9.41378 12.6058 8.01901L12.4528 8.14782ZM14.9518 12.807L14.7538 12.8353C15.2225 16.1128 14.2888 19.3817 12.7716 22.2877L12.9489 22.3802L13.1262 22.4728C14.6664 19.5226 15.6344 16.1673 15.1498 12.7787L14.9518 12.807ZM12.9489 22.3802L12.7724 22.2861L12.331 23.1132L12.5075 23.2074L12.6839 23.3016L13.1253 22.4744L12.9489 22.3802ZM12.5075 23.2074L12.33 23.1151C12.172 23.4188 12.0685 23.6418 11.9174 23.8143C11.779 23.9722 11.597 24.0888 11.2733 24.1397L11.3043 24.3373L11.3354 24.5348C11.7445 24.4705 12.0136 24.3115 12.2182 24.0779C12.4102 23.8589 12.5419 23.5746 12.6849 23.2997L12.5075 23.2074ZM11.3043 24.3373L11.2932 24.1376C10.8409 24.1629 10.268 24.1473 9.78979 24.147L9.7897 24.347L9.7896 24.547C10.2502 24.5473 10.8483 24.5631 11.3155 24.537L11.3043 24.3373ZM9.7897 24.347L9.78977 24.147L7.08372 24.1461L7.08364 24.3461L7.08357 24.5461L9.78963 24.547L9.7897 24.347ZM7.08364 24.3461L7.08355 24.1461L5.07085 24.147L5.07095 24.347L5.07105 24.547L7.08374 24.5461L7.08364 24.3461ZM5.07095 24.347L5.07082 24.147C4.69577 24.1473 4.34005 24.1697 3.9966 24.1363L3.9772 24.3353L3.9578 24.5344C4.32697 24.5704 4.72972 24.5473 5.07107 24.547L5.07095 24.347ZM3.9772 24.3353L3.99644 24.1362C3.81882 24.1191 3.61936 24.0449 3.48483 23.9402L3.36196 24.098L3.2391 24.2558C3.44027 24.4124 3.71386 24.5108 3.95796 24.5344L3.9772 24.3353ZM3.36196 24.098L3.48487 23.9402C3.33359 23.8224 3.20575 23.6393 3.08508 23.4192C3.02552 23.3106 2.97003 23.1974 2.91481 23.0834C2.86038 22.971 2.80535 22.8558 2.74968 22.7506L2.5729 22.8441L2.39612 22.9376C2.44757 23.0349 2.49871 23.1419 2.55479 23.2577C2.61007 23.3719 2.66943 23.4931 2.73433 23.6115C2.86259 23.8454 3.02216 24.0868 3.23906 24.2558L3.36196 24.098ZM2.5729 22.8441L2.74967 22.7506C1.58494 20.5497 0.761857 18.4875 0.489476 16.0117L0.290675 16.0336L0.0918748 16.0554C0.371841 18.6002 1.21866 20.7127 2.39613 22.9377L2.5729 22.8441ZM0.290675 16.0336L0.489476 16.0117C0.253886 13.87 0.435946 11.851 1.62566 10.045L1.45864 9.93493L1.29163 9.82491C0.0302159 11.7398 -0.148935 13.8663 0.0918745 16.0554L0.290675 16.0336ZM1.45864 9.93493L1.62565 10.045C2.15142 9.24697 2.78175 8.53324 3.39235 7.76764L3.23599 7.64294L3.07963 7.51824C2.48559 8.26307 1.8307 9.00672 1.29163 9.8249L1.45864 9.93493ZM3.23599 7.64294L3.39235 7.76764C3.69957 7.38243 3.95919 6.96868 4.08447 6.46033L3.89028 6.41247L3.6961 6.36461C3.59019 6.79434 3.36884 7.15561 3.07963 7.51823L3.23599 7.64294ZM3.89028 6.41247L4.08449 6.46028C4.11424 6.33943 4.13441 6.08118 4.14826 5.78194C4.16254 5.47343 4.17088 5.09713 4.17166 4.72383C4.17243 4.35078 4.16567 3.9782 4.14947 3.67758C4.14138 3.52752 4.13081 3.39281 4.11722 3.28381C4.10477 3.18395 4.0871 3.07934 4.0547 3.00825L3.87271 3.09118L3.69071 3.17411C3.69052 3.1737 3.69526 3.18538 3.70194 3.21726C3.7081 3.24664 3.71431 3.28527 3.72029 3.33328C3.73225 3.42922 3.74221 3.55359 3.75005 3.69911C3.76571 3.98965 3.77243 4.35419 3.77166 4.723C3.77089 5.09156 3.76265 5.46186 3.74869 5.76344C3.7343 6.0743 3.71455 6.28964 3.69608 6.36466L3.89028 6.41247ZM3.87271 3.09118L4.05468 3.00819C3.89929 2.66748 3.62299 2.44529 3.43301 2.25533C3.23691 2.05926 3.08782 1.8657 3.05616 1.53778L2.85708 1.557L2.65801 1.57623C2.70258 2.03783 2.92546 2.3135 3.15019 2.53819C3.38103 2.76901 3.57443 2.91914 3.69074 3.17417L3.87271 3.09118ZM2.85708 1.557L3.05616 1.53782C3.02969 1.26306 3.12786 0.965562 3.30891 0.747135L3.15493 0.619502L3.00095 0.491869C2.75723 0.785898 2.62055 1.18748 2.658 1.57618L2.85708 1.557ZM3.15493 0.619502L3.30886 0.747203C3.48815 0.53109 3.73967 0.440315 4.05163 0.41246L4.03384 0.213252L4.01605 0.0140447C3.64822 0.0468892 3.27498 0.161565 3.00101 0.491802L3.15493 0.619502ZM4.03384 0.213252L4.0403 0.413148C4.52926 0.397344 5.08633 0.40923 5.59141 0.409346L5.59146 0.209346L5.5915 0.00934586C5.09908 0.00923309 4.52481 -0.00272132 4.02738 0.0133565L4.03384 0.213252ZM5.59146 0.209346L5.59139 0.409346L8.57772 0.410322L8.57778 0.210322L8.57785 0.0103224L5.59152 0.00934586L5.59146 0.209346ZM8.57778 0.210322L8.57801 0.410322L10.3358 0.408369L10.3356 0.208369L10.3354 0.0083694L8.57756 0.0103225L8.57778 0.210322ZM9.99185 1.01794L9.99175 0.81794L7.96734 0.818916L7.96743 1.01892L7.96753 1.21892L9.99194 1.21794L9.99185 1.01794ZM7.96743 1.01892V0.818916H5.39517V1.01892V1.21892H7.96743V1.01892ZM5.39517 1.01892L5.3951 0.818916C4.9574 0.819071 4.44377 0.808521 4.00053 0.82392L4.00747 1.0238L4.01442 1.22368C4.44867 1.20859 4.94465 1.21908 5.39524 1.21892L5.39517 1.01892ZM4.00747 1.0238L3.96855 0.827623C3.76275 0.868454 3.59687 0.956836 3.50562 1.11004C3.41474 1.2626 3.42653 1.43142 3.46828 1.56954C3.54958 1.83852 3.77533 2.10262 3.95443 2.25035L4.08169 2.09606L4.20895 1.94178C4.06328 1.82162 3.90116 1.61918 3.85117 1.4538C3.82727 1.37473 3.83755 1.33442 3.84927 1.31474C3.86061 1.2957 3.90143 1.24874 4.04639 1.21998L4.00747 1.0238ZM4.08169 2.09606L3.95442 2.25034C4.27983 2.51879 4.5109 2.92166 4.52538 3.32108L4.72525 3.31384L4.92511 3.30659C4.90568 2.7705 4.60367 2.2674 4.20896 1.94179L4.08169 2.09606ZM4.72525 3.31384L4.52552 3.32423C4.5475 3.74671 4.52791 4.15724 4.53405 4.60176L4.73403 4.59899L4.93402 4.59623C4.92838 4.18862 4.9472 3.73057 4.92498 3.30344L4.72525 3.31384ZM4.73403 4.59899L4.53407 4.59504C4.52894 4.85451 4.53732 5.15953 4.53857 5.44536C4.53986 5.73762 4.53391 6.01686 4.50261 6.25013L4.70083 6.27673L4.89906 6.30333C4.93429 6.04073 4.93986 5.73787 4.93857 5.44361C4.93725 5.14293 4.92896 4.85702 4.934 4.60295L4.73403 4.59899ZM4.70083 6.27673L4.50238 6.25188C4.46149 6.57843 4.36853 6.8965 4.22723 7.19381L4.40786 7.27966L4.5885 7.36551C4.74808 7.02975 4.85309 6.67051 4.89928 6.30158L4.70083 6.27673ZM4.40786 7.27966L4.22795 7.19231C4.00655 7.64834 3.64573 8.10633 3.2523 8.57615C2.86536 9.03824 2.44434 9.5144 2.1353 9.9842L2.30239 10.0941L2.46948 10.204C2.762 9.75934 3.16029 9.30907 3.55898 8.83296C3.95119 8.36458 4.34233 7.87258 4.58778 7.36701L4.40786 7.27966ZM2.30239 10.0941L2.1353 9.9842C1.67909 10.6778 1.26514 11.3607 1.05351 12.2201L1.24771 12.2679L1.44191 12.3158C1.63609 11.5272 2.01652 10.8926 2.46949 10.204L2.30239 10.0941ZM1.24771 12.2679L1.05424 12.2173C0.477703 14.418 0.891496 17.1365 1.59936 19.219L1.78872 19.1547L1.97808 19.0903C1.28307 17.0456 0.892425 14.4133 1.44118 12.3186L1.24771 12.2679ZM1.78872 19.1547L1.59897 19.2179C1.75544 19.6877 1.93094 20.1515 2.12527 20.6071L2.30923 20.5287L2.4932 20.4502C2.30321 20.0048 2.13155 19.5511 1.97848 19.0915L1.78872 19.1547ZM2.30923 20.5287L2.12527 20.6072C2.21893 20.8267 2.55242 21.5386 2.89318 22.2121C3.06372 22.5492 3.23771 22.8799 3.38568 23.1364C3.45947 23.2643 3.5286 23.3769 3.58885 23.4637C3.61889 23.5069 3.64875 23.5467 3.67756 23.5797C3.70294 23.6089 3.74046 23.6482 3.78712 23.6745L3.8854 23.5004L3.98368 23.3262C3.99898 23.3348 3.99816 23.3388 3.97915 23.317C3.96357 23.2991 3.94297 23.2723 3.91738 23.2355C3.86639 23.1621 3.80365 23.0604 3.73216 22.9365C3.58959 22.6894 3.41943 22.3662 3.2501 22.0315C2.91111 21.3615 2.58198 20.6583 2.49319 20.4502L2.30923 20.5287ZM3.8854 23.5004L3.78682 23.6744C3.86358 23.7179 3.95364 23.7309 4.01338 23.7367C4.07672 23.7429 4.14582 23.7438 4.18143 23.7451L4.18911 23.5453L4.1968 23.3454C4.1448 23.3434 4.1 23.3433 4.05237 23.3386C4.03004 23.3365 4.0122 23.3336 3.99865 23.3304C3.98428 23.327 3.98091 23.3246 3.98399 23.3263L3.8854 23.5004ZM4.18911 23.5453L4.18164 23.7451C4.65673 23.7629 5.14223 23.7492 5.60513 23.7492L5.60513 23.5492L5.60513 23.3492C5.12639 23.3492 4.66209 23.3628 4.19658 23.3454L4.18911 23.5453ZM5.60513 23.5492V23.7492H10.1872V23.5492V23.3492H5.60513V23.5492ZM10.1872 23.5492L10.1873 23.7492C10.4959 23.749 10.9585 23.7624 11.2784 23.743L11.2663 23.5433L11.2542 23.3437C10.9499 23.3621 10.5178 23.349 10.187 23.3492L10.1872 23.5492ZM11.2663 23.5433L11.3349 23.7312C11.3753 23.7164 11.4369 23.6933 11.4963 23.6603C11.5528 23.6289 11.6297 23.5765 11.6792 23.4919L11.5065 23.391L11.3338 23.29C11.3377 23.2835 11.3342 23.2928 11.3019 23.3107C11.2724 23.3271 11.2367 23.3412 11.1976 23.3555L11.2663 23.5433ZM11.5065 23.391L11.6793 23.4917C13.1757 20.925 14.3389 18.1339 14.4826 15.1006L14.2829 15.0912L14.0831 15.0817C13.9436 18.0247 12.8141 20.7511 11.3337 23.2903L11.5065 23.391ZM14.2829 15.0912L14.4826 15.1007C14.5379 13.9346 14.4474 12.7812 14.0402 11.6569L13.8522 11.725L13.6641 11.7931C14.0475 12.8516 14.1369 13.948 14.0831 15.0817L14.2829 15.0912ZM13.8522 11.725L14.0402 11.6568C13.5272 10.241 12.4728 9.14335 11.5991 8.03568L11.442 8.15954L11.285 8.2834C12.1934 9.43498 13.18 10.4568 13.6642 11.7931L13.8522 11.725ZM11.442 8.15954L11.5991 8.03569C11.2219 7.5574 10.9224 7.0618 10.8071 6.48552L10.611 6.52478L10.4149 6.56403C10.548 7.22922 10.8906 7.7833 11.285 8.28339L11.442 8.15954ZM10.611 6.52478L10.8073 6.48646C10.7502 6.19422 10.7383 5.88362 10.739 5.55964C10.7396 5.24322 10.7527 4.90021 10.7415 4.57933L10.5417 4.5863L10.3418 4.59327C10.3527 4.90583 10.3396 5.22028 10.339 5.55885C10.3383 5.88986 10.35 6.23178 10.4147 6.56309L10.611 6.52478ZM10.5417 4.5863L10.7416 4.59095C10.7464 4.38437 10.7385 4.17171 10.7342 3.9716C10.7299 3.76806 10.7291 3.57352 10.7459 3.3871C10.7792 3.01751 10.8803 2.69615 11.1473 2.43147L11.0065 2.28942L10.8657 2.14738C10.5078 2.50217 10.3857 2.92788 10.3475 3.35117C10.3286 3.56119 10.3299 3.77455 10.3343 3.98014C10.3388 4.18915 10.3462 4.38686 10.3417 4.58165L10.5417 4.5863ZM11.0065 2.28942L11.1472 2.43152C11.2795 2.3005 11.5387 2.08038 11.6899 1.84786C11.7685 1.7269 11.8346 1.58002 11.8342 1.41663C11.8339 1.24514 11.7607 1.08559 11.6174 0.946639L11.4782 1.09021L11.3389 1.23377C11.4176 1.31002 11.4341 1.37052 11.4342 1.41742C11.4343 1.47241 11.4115 1.54225 11.3545 1.62984C11.2345 1.81442 11.036 1.97871 10.8658 2.14733L11.0065 2.28942ZM11.4782 1.09021L11.5443 0.901443C11.3437 0.831223 11.035 0.814151 10.7564 0.810518C10.4763 0.806863 10.1667 0.81767 9.99154 0.81794L9.99185 1.01794L9.99216 1.21794C10.1972 1.21762 10.4657 1.20676 10.7512 1.21048C11.0382 1.21423 11.2825 1.23358 11.4121 1.27897L11.4782 1.09021Z" fill="black"/>
</svg>
