<svg width="19" height="22" viewBox="0 0 19 22" fill="none" xmlns="http://www.w3.org/2000/svg">
<path fill-rule="evenodd" clip-rule="evenodd" d="M12.4759 0.161951C13.12 0.162043 13.8548 0.0525057 14.3626 0.516444C14.5079 0.647183 14.6243 0.806463 14.7054 0.984217C14.8917 1.39983 15.105 2.01426 15.2728 2.45492L16.3099 5.18344L17.6195 8.66097C17.8547 9.28698 18.0871 9.9105 18.3197 10.5409C18.5292 11.0607 18.4715 11.5905 18.0657 12.0047C17.6419 12.4374 17.1436 12.3855 16.5882 12.3846L15.3441 12.3827L10.7962 12.3836L10.7943 18.4969C10.9952 18.4944 11.1966 18.4936 11.3978 18.495C12.6354 18.513 13.7685 19.4011 13.8343 20.7284C13.8453 20.9505 13.722 21.1335 13.5599 21.2772C13.4394 21.3496 13.3046 21.396 13.1644 21.3993C12.6198 21.4114 12.0664 21.4056 11.5218 21.4051H8.49446L6.44661 21.4061C6.08834 21.4061 5.7111 21.4165 5.35481 21.3895C5.00558 21.354 4.75626 21.0671 4.76692 20.7215C4.79703 19.7493 5.52311 18.9004 6.43293 18.6092C6.89059 18.4627 7.3217 18.4939 7.79231 18.4959L7.79329 12.3836L3.40852 12.3827L2.12434 12.3846C1.65181 12.3858 1.16669 12.4414 0.750318 12.1805C0.459825 11.9988 0.254494 11.7074 0.180982 11.3729C0.135225 11.1719 0.137526 10.9487 0.204419 10.7547C0.46439 10.0008 0.760899 9.23576 1.04133 8.4891L2.66047 4.19125L3.47981 2.03988C3.81497 1.15485 3.9317 0.383816 4.9759 0.171717C5.53767 0.128667 6.2431 0.162553 6.81282 0.162928L10.2132 0.161951H12.4759ZM9.87141 19.2371C8.96604 19.2447 8.01043 19.2178 7.11067 19.2401C6.30372 19.3094 5.63032 19.8219 5.52864 20.6561L11.5365 20.6571L13.0775 20.6551C12.9865 20.1834 12.7864 19.8125 12.3802 19.536C12.163 19.3894 11.9151 19.2943 11.6556 19.2577C11.3194 19.2082 10.2814 19.2337 9.87141 19.2371ZM8.54817 18.495L10.0384 18.4959L10.0374 12.3846L8.54915 12.3836L8.54817 18.495ZM5.09114 0.908045C4.91934 0.949838 4.69346 1.04383 4.61555 1.20785C4.47321 1.50761 4.34647 1.87366 4.22786 2.18637L3.42219 4.30941L1.75813 8.7225L1.20735 10.1815C1.11305 10.4306 1.01996 10.679 0.928052 10.9295C0.812043 11.2468 1.06516 11.6301 1.40168 11.6395C1.85912 11.6523 2.32203 11.6463 2.78059 11.6463L5.37727 11.6453H13.5062L15.9779 11.6463C16.1572 11.6466 16.3367 11.6494 16.5169 11.6473C16.7467 11.6448 16.9724 11.6571 17.2025 11.6366C17.4783 11.6121 17.6901 11.3947 17.6947 11.1151C17.694 11.0161 17.6637 10.931 17.6312 10.8387C17.4105 10.2285 17.1764 9.62045 16.9466 9.01351L15.7552 5.85629L14.5823 2.77035C14.3958 2.28108 14.2112 1.78729 14.0247 1.29769C13.9922 1.21448 13.9379 1.15039 13.8782 1.08676C13.7642 0.96543 13.6255 0.929421 13.4642 0.917811C13.115 0.892833 12.7533 0.902002 12.4027 0.902186L10.4984 0.903162C8.73131 0.903437 6.8497 0.870794 5.09114 0.908045Z" fill="black"/>
<path d="M12.4759 0.161951L12.4759 0.0119514H12.4759V0.161951ZM14.3626 0.516444L14.2614 0.627187L14.2623 0.627957L14.3626 0.516444ZM14.7054 0.984217L14.8423 0.92286L14.8419 0.921984L14.7054 0.984217ZM15.2728 2.45492L15.413 2.40163L15.413 2.40156L15.2728 2.45492ZM16.3099 5.18344L16.4503 5.13057L16.4501 5.13014L16.3099 5.18344ZM17.6195 8.66097L17.7599 8.6082L17.7598 8.60811L17.6195 8.66097ZM18.3197 10.5409L18.1789 10.5928L18.1805 10.5969L18.3197 10.5409ZM18.0657 12.0047L18.1729 12.1097L18.1729 12.1097L18.0657 12.0047ZM16.5882 12.3846L16.5885 12.2346H16.5884L16.5882 12.3846ZM15.3441 12.3827L15.3443 12.2327H15.344L15.3441 12.3827ZM10.7962 12.3836L10.7962 12.2336L10.6463 12.2337L10.6462 12.3836L10.7962 12.3836ZM10.7943 18.4969L10.6443 18.4969L10.6442 18.6488L10.7961 18.6469L10.7943 18.4969ZM11.3978 18.495L11.4 18.345L11.3988 18.345L11.3978 18.495ZM13.8343 20.7284L13.9841 20.7209V20.7209L13.8343 20.7284ZM13.5599 21.2772L13.6371 21.4058L13.649 21.3986L13.6594 21.3895L13.5599 21.2772ZM13.1644 21.3993L13.1677 21.5492L13.1678 21.5492L13.1644 21.3993ZM11.5218 21.4051L11.5219 21.2551H11.5218V21.4051ZM8.49446 21.4051V21.2551H8.49439L8.49446 21.4051ZM6.44661 21.4061L6.44661 21.5561H6.44668L6.44661 21.4061ZM5.35481 21.3895L5.33963 21.5388L5.34348 21.5391L5.35481 21.3895ZM4.76692 20.7215L4.61699 20.7169L4.61699 20.7169L4.76692 20.7215ZM6.43293 18.6092L6.47866 18.7521L6.47868 18.7521L6.43293 18.6092ZM7.79231 18.4959L7.79165 18.6459L7.94229 18.6466L7.94231 18.496L7.79231 18.4959ZM7.79329 12.3836L7.94329 12.3837L7.94331 12.2337L7.79332 12.2336L7.79329 12.3836ZM3.40852 12.3827L3.40855 12.2327H3.40829L3.40852 12.3827ZM2.12434 12.3846L2.12411 12.2346H2.12397L2.12434 12.3846ZM0.750318 12.1805L0.829953 12.0534L0.829867 12.0533L0.750318 12.1805ZM0.180982 11.3729L0.327491 11.3407L0.327238 11.3396L0.180982 11.3729ZM0.204419 10.7547L0.0626134 10.7058L0.0626117 10.7058L0.204419 10.7547ZM1.04133 8.4891L0.900964 8.43622L0.900911 8.43636L1.04133 8.4891ZM2.66047 4.19125L2.52029 4.13786L2.5201 4.13837L2.66047 4.19125ZM3.47981 2.03988L3.61999 2.09327L3.62009 2.093L3.47981 2.03988ZM4.9759 0.171717L4.96444 0.0221556L4.95516 0.0228665L4.94605 0.0247188L4.9759 0.171717ZM6.81282 0.162928L6.81272 0.312928L6.81286 0.312928L6.81282 0.162928ZM10.2132 0.161951V0.0119514L10.2132 0.0119514L10.2132 0.161951ZM9.87141 19.2371L9.87266 19.3871H9.87267L9.87141 19.2371ZM7.11067 19.2401L7.10696 19.0898L7.09783 19.0906L7.11067 19.2401ZM5.52864 20.6561L5.37974 20.6379L5.35925 20.8061L5.52861 20.8061L5.52864 20.6561ZM11.5365 20.6571L11.5364 20.8071H11.5366L11.5365 20.6571ZM13.0775 20.6551L13.0777 20.8051L13.2591 20.8049L13.2248 20.6267L13.0775 20.6551ZM12.3802 19.536L12.4646 19.412L12.4641 19.4116L12.3802 19.536ZM11.6556 19.2577L11.6338 19.4061L11.6346 19.4062L11.6556 19.2577ZM8.54817 18.495L8.39817 18.4949L8.39815 18.6449L8.54807 18.645L8.54817 18.495ZM10.0384 18.4959L10.0383 18.6459L10.1884 18.646L10.1884 18.4959L10.0384 18.4959ZM10.0374 12.3846L10.1874 12.3846L10.1874 12.2347L10.0375 12.2346L10.0374 12.3846ZM8.54915 12.3836L8.54924 12.2336L8.39917 12.2335L8.39915 12.3836L8.54915 12.3836ZM5.09114 0.908045L5.08796 0.758079L5.07159 0.758426L5.05568 0.762296L5.09114 0.908045ZM4.61555 1.20785L4.48006 1.14349L4.48005 1.14351L4.61555 1.20785ZM4.22786 2.18637L4.3681 2.23958L4.36811 2.23956L4.22786 2.18637ZM3.42219 4.30941L3.28195 4.25619L3.28184 4.25649L3.42219 4.30941ZM1.75813 8.7225L1.89846 8.77548L1.89848 8.77542L1.75813 8.7225ZM1.20735 10.1815L1.34763 10.2346L1.34768 10.2345L1.20735 10.1815ZM0.928052 10.9295L0.787228 10.8779L0.787176 10.878L0.928052 10.9295ZM1.40168 11.6395L1.40589 11.4895L1.40587 11.4895L1.40168 11.6395ZM2.78059 11.6463L2.78059 11.7963H2.78065L2.78059 11.6463ZM5.37727 11.6453V11.4953H5.37721L5.37727 11.6453ZM13.5062 11.6453L13.5062 11.4953H13.5062V11.6453ZM15.9779 11.6463L15.9781 11.4963H15.9779L15.9779 11.6463ZM16.5169 11.6473L16.5153 11.4973L16.5152 11.4973L16.5169 11.6473ZM17.2025 11.6366L17.1892 11.4871L17.1891 11.4872L17.2025 11.6366ZM17.6947 11.1151L17.8447 11.1175L17.8447 11.114L17.6947 11.1151ZM17.6312 10.8387L17.7726 10.7888L17.7722 10.7877L17.6312 10.8387ZM16.9466 9.01351L16.8063 9.06647L16.8063 9.06663L16.9466 9.01351ZM15.7552 5.85629L15.8955 5.80333L15.8954 5.803L15.7552 5.85629ZM14.5823 2.77035L14.7226 2.71706L14.7225 2.71692L14.5823 2.77035ZM14.0247 1.29769L14.1649 1.24429L14.1645 1.24314L14.0247 1.29769ZM13.8782 1.08676L13.9876 0.984122L13.9876 0.984042L13.8782 1.08676ZM13.4642 0.917811L13.475 0.768198L13.4749 0.768193L13.4642 0.917811ZM12.4027 0.902186L12.4027 1.05219H12.4027L12.4027 0.902186ZM10.4984 0.903162L10.4984 1.05316L10.4984 1.05316L10.4984 0.903162ZM12.4759 0.161951L12.4759 0.311951C12.8152 0.312 13.1373 0.284786 13.4564 0.314605C13.7669 0.343614 14.0409 0.425717 14.2614 0.627184L14.3626 0.516444L14.4638 0.405703C14.1765 0.143233 13.8293 0.0481351 13.4843 0.0159058C13.1481 -0.0155141 12.7807 0.0119948 12.4759 0.0119514L12.4759 0.161951ZM14.3626 0.516444L14.2623 0.627957C14.3922 0.744797 14.4963 0.887255 14.5689 1.04645L14.7054 0.984217L14.8419 0.921984C14.7524 0.725671 14.6237 0.549569 14.4629 0.40493L14.3626 0.516444ZM14.7054 0.984217L14.5685 1.04557C14.7525 1.45601 14.962 2.0601 15.1326 2.50828L15.2728 2.45492L15.413 2.40156C15.2481 1.96843 15.0309 1.34364 14.8423 0.922861L14.7054 0.984217ZM15.2728 2.45492L15.1326 2.50822L16.1697 5.23673L16.3099 5.18344L16.4501 5.13014L15.413 2.40163L15.2728 2.45492ZM16.3099 5.18344L16.1695 5.2363L17.4791 8.71384L17.6195 8.66097L17.7598 8.60811L16.4503 5.13057L16.3099 5.18344ZM17.6195 8.66097L17.479 8.71375C17.7142 9.33949 17.9465 9.96272 18.1789 10.5928L18.3197 10.5409L18.4604 10.4889C18.2277 9.85828 17.9953 9.23447 17.7599 8.6082L17.6195 8.66097ZM18.3197 10.5409L18.1805 10.5969C18.3715 11.0709 18.316 11.5349 17.9586 11.8998L18.0657 12.0047L18.1729 12.1097C18.627 11.6461 18.6868 11.0506 18.4588 10.4848L18.3197 10.5409ZM18.0657 12.0047L17.9586 11.8998C17.5883 12.2778 17.1673 12.2356 16.5885 12.2346L16.5882 12.3846L16.588 12.5346C17.1199 12.5355 17.6955 12.5971 18.1729 12.1097L18.0657 12.0047ZM16.5882 12.3846L16.5884 12.2346L15.3443 12.2327L15.3441 12.3827L15.3438 12.5327L16.588 12.5346L16.5882 12.3846ZM15.3441 12.3827L15.344 12.2327L10.7962 12.2336L10.7962 12.3836L10.7962 12.5336L15.3441 12.5327L15.3441 12.3827ZM10.7962 12.3836L10.6462 12.3836L10.6443 18.4969L10.7943 18.4969L10.9443 18.497L10.9462 12.3837L10.7962 12.3836ZM10.7943 18.4969L10.7961 18.6469C10.9963 18.6444 11.1966 18.6436 11.3968 18.645L11.3978 18.495L11.3988 18.345C11.1965 18.3436 10.9942 18.3444 10.7924 18.3469L10.7943 18.4969ZM11.3978 18.495L11.3956 18.6449C12.568 18.662 13.6233 19.5007 13.6845 20.7358L13.8343 20.7284L13.9841 20.7209C13.9138 19.3014 12.7027 18.364 11.4 18.345L11.3978 18.495ZM13.8343 20.7284L13.6845 20.7358C13.6923 20.8927 13.6067 21.0353 13.4604 21.1649L13.5599 21.2772L13.6594 21.3895C13.8373 21.2318 13.9983 21.0083 13.9841 20.7209L13.8343 20.7284ZM13.5599 21.2772L13.4826 21.1486C13.3796 21.2105 13.2701 21.2468 13.1609 21.2493L13.1644 21.3993L13.1678 21.5492C13.3392 21.5453 13.4991 21.4887 13.6371 21.4058L13.5599 21.2772ZM13.1644 21.3993L13.161 21.2493C12.6187 21.2614 12.0685 21.2556 11.5219 21.2551L11.5218 21.4051L11.5217 21.5551C12.0643 21.5556 12.6208 21.5614 13.1677 21.5492L13.1644 21.3993ZM11.5218 21.4051V21.2551H8.49446V21.4051V21.5551H11.5218V21.4051ZM8.49446 21.4051L8.49439 21.2551L6.44654 21.2561L6.44661 21.4061L6.44668 21.5561L8.49453 21.5551L8.49446 21.4051ZM6.44661 21.4061L6.4466 21.2561C6.08242 21.2561 5.71494 21.2663 5.36614 21.2399L5.35481 21.3895L5.34348 21.5391C5.70727 21.5666 6.09426 21.5561 6.44661 21.5561L6.44661 21.4061ZM5.35481 21.3895L5.36999 21.2403C5.09895 21.2127 4.90862 20.9929 4.91685 20.7261L4.76692 20.7215L4.61699 20.7169C4.6039 21.1413 4.91222 21.4953 5.33963 21.5387L5.35481 21.3895ZM4.76692 20.7215L4.91685 20.7262C4.94474 19.8255 5.62133 19.0265 6.47866 18.7521L6.43293 18.6092L6.38721 18.4664C5.42488 18.7744 4.64931 19.6732 4.61699 20.7169L4.76692 20.7215ZM6.43293 18.6092L6.47868 18.7521C6.90771 18.6147 7.30787 18.6438 7.79165 18.6459L7.79231 18.4959L7.79297 18.3459C7.33553 18.3439 6.87348 18.3106 6.38719 18.4664L6.43293 18.6092ZM7.79231 18.4959L7.94231 18.496L7.94329 12.3837L7.79329 12.3836L7.64329 12.3836L7.64231 18.4959L7.79231 18.4959ZM7.79329 12.3836L7.79332 12.2336L3.40855 12.2327L3.40852 12.3827L3.40849 12.5327L7.79325 12.5336L7.79329 12.3836ZM3.40852 12.3827L3.40829 12.2327L2.12411 12.2346L2.12434 12.3846L2.12457 12.5346L3.40875 12.5327L3.40852 12.3827ZM2.12434 12.3846L2.12397 12.2346C1.87591 12.2352 1.65258 12.2492 1.42821 12.2313C1.20989 12.2138 1.01064 12.1666 0.829953 12.0534L0.750318 12.1805L0.670682 12.3076C0.906365 12.4553 1.15787 12.5106 1.40432 12.5303C1.64474 12.5495 1.90024 12.5352 2.12471 12.5346L2.12434 12.3846ZM0.750318 12.1805L0.829867 12.0533C0.573555 11.893 0.39235 11.6359 0.327487 11.3407L0.180982 11.3729L0.0344767 11.4051C0.116638 11.779 0.346095 12.1046 0.670768 12.3077L0.750318 12.1805ZM0.180982 11.3729L0.327238 11.3396C0.286563 11.161 0.28998 10.9668 0.346227 10.8036L0.204419 10.7547L0.0626117 10.7058C-0.0149268 10.9307 -0.0161137 11.1829 0.0347255 11.4062L0.180982 11.3729ZM0.204419 10.7547L0.346225 10.8036C0.605313 10.0523 0.900557 9.29054 1.18176 8.54184L1.04133 8.4891L0.900911 8.43636C0.621241 9.18099 0.323467 9.94936 0.0626134 10.7058L0.204419 10.7547ZM1.04133 8.4891L1.1817 8.54198L2.80084 4.24413L2.66047 4.19125L2.5201 4.13837L0.900964 8.43622L1.04133 8.4891ZM2.66047 4.19125L2.80065 4.24463L3.61999 2.09327L3.47981 2.03988L3.33963 1.9865L2.5203 4.13786L2.66047 4.19125ZM3.47981 2.03988L3.62009 2.093C3.66269 1.98051 3.7017 1.87015 3.73901 1.76392C3.77652 1.65717 3.81212 1.55516 3.84872 1.45671C3.92204 1.25954 3.99672 1.08424 4.08996 0.931667C4.27061 0.636043 4.52596 0.416172 5.00576 0.318715L4.9759 0.171717L4.94605 0.0247188C4.38164 0.139361 4.05652 0.411057 3.83397 0.775233C3.7256 0.952565 3.64299 1.14922 3.56753 1.35215C3.52975 1.45377 3.49308 1.55885 3.45597 1.66449C3.41867 1.77066 3.38072 1.87799 3.33953 1.98676L3.47981 2.03988ZM4.9759 0.171717L4.98736 0.321279C5.54166 0.278802 6.23138 0.312545 6.81272 0.312928L6.81282 0.162928L6.81292 0.012928C6.25482 0.0125605 5.53369 -0.021467 4.96444 0.0221556L4.9759 0.171717ZM6.81282 0.162928L6.81286 0.312928L10.2133 0.311951L10.2132 0.161951L10.2132 0.0119514L6.81277 0.012928L6.81282 0.162928ZM10.2132 0.161951V0.311951H12.4759V0.161951V0.0119514H10.2132V0.161951ZM9.87141 19.2371L9.87016 19.0872C8.97501 19.0946 8.00568 19.0679 7.10696 19.0901L7.11067 19.2401L7.11437 19.39C8.01517 19.3678 8.95706 19.3948 9.87266 19.3871L9.87141 19.2371ZM7.11067 19.2401L7.09783 19.0906C6.2362 19.1647 5.49181 19.7185 5.37974 20.6379L5.52864 20.6561L5.67754 20.6742C5.76883 19.9253 6.37125 19.4542 7.12351 19.3895L7.11067 19.2401ZM5.52864 20.6561L5.52861 20.8061L11.5364 20.8071L11.5365 20.6571L11.5365 20.5071L5.52866 20.5061L5.52864 20.6561ZM11.5365 20.6571L11.5366 20.8071L13.0777 20.8051L13.0775 20.6551L13.0773 20.5051L11.5363 20.5071L11.5365 20.6571ZM13.0775 20.6551L13.2248 20.6267C13.128 20.125 12.9104 19.7154 12.4646 19.412L12.3802 19.536L12.2958 19.66C12.6625 19.9096 12.845 20.2419 12.9302 20.6835L13.0775 20.6551ZM12.3802 19.536L12.4641 19.4116C12.228 19.2523 11.9586 19.149 11.6766 19.1091L11.6556 19.2577L11.6346 19.4062C11.8717 19.4397 12.098 19.5265 12.2963 19.6603L12.3802 19.536ZM11.6556 19.2577L11.6774 19.1093C11.496 19.0826 11.1402 19.0769 10.7909 19.0776C10.4381 19.0782 10.0719 19.0855 9.87015 19.0872L9.87141 19.2371L9.87267 19.3871C10.0809 19.3854 10.4387 19.3782 10.7914 19.3776C11.1477 19.3769 11.479 19.3833 11.6338 19.4061L11.6556 19.2577ZM8.54817 18.495L8.54807 18.645L10.0383 18.6459L10.0384 18.4959L10.0385 18.3459L8.54827 18.345L8.54817 18.495ZM10.0384 18.4959L10.1884 18.4959L10.1874 12.3846L10.0374 12.3846L9.88743 12.3846L9.8884 18.496L10.0384 18.4959ZM10.0374 12.3846L10.0375 12.2346L8.54924 12.2336L8.54915 12.3836L8.54905 12.5336L10.0373 12.5346L10.0374 12.3846ZM8.54915 12.3836L8.39915 12.3836L8.39817 18.4949L8.54817 18.495L8.69817 18.495L8.69915 12.3837L8.54915 12.3836ZM5.09114 0.908045L5.05568 0.762296C4.96075 0.785388 4.8476 0.82355 4.74471 0.881314C4.64372 0.938006 4.53779 1.02195 4.48006 1.14349L4.61555 1.20785L4.75104 1.27221C4.77122 1.22973 4.81718 1.18467 4.89156 1.14291C4.96404 1.10223 5.04972 1.0725 5.12659 1.05379L5.09114 0.908045ZM4.61555 1.20785L4.48005 1.14351C4.33425 1.45055 4.20375 1.82696 4.08761 2.13317L4.22786 2.18637L4.36811 2.23956C4.48918 1.92036 4.61217 1.56467 4.75105 1.27219L4.61555 1.20785ZM4.22786 2.18637L4.08762 2.13315L3.28195 4.25619L3.42219 4.30941L3.56243 4.36263L4.3681 2.23958L4.22786 2.18637ZM3.42219 4.30941L3.28184 4.25649L1.61778 8.66957L1.75813 8.7225L1.89848 8.77542L3.56255 4.36234L3.42219 4.30941ZM1.75813 8.7225L1.6178 8.66952L1.06702 10.1285L1.20735 10.1815L1.34768 10.2345L1.89846 8.77548L1.75813 8.7225ZM1.20735 10.1815L1.06706 10.1284C0.972657 10.3778 0.879375 10.6267 0.787228 10.8779L0.928052 10.9295L1.06888 10.9812C1.16055 10.7313 1.25345 10.4834 1.34763 10.2346L1.20735 10.1815ZM0.928052 10.9295L0.787176 10.878C0.709979 11.0891 0.757835 11.3139 0.870248 11.483C0.982695 11.6521 1.17154 11.7831 1.3975 11.7894L1.40168 11.6395L1.40587 11.4895C1.2953 11.4865 1.18933 11.4211 1.12009 11.3169C1.05081 11.2127 1.03012 11.0872 1.06893 10.981L0.928052 10.9295ZM1.40168 11.6395L1.39748 11.7894C1.85772 11.8023 2.32465 11.7963 2.78059 11.7963L2.78059 11.6463L2.78059 11.4963C2.31941 11.4963 1.86052 11.5023 1.40589 11.4895L1.40168 11.6395ZM2.78059 11.6463L2.78065 11.7963L5.37733 11.7954L5.37727 11.6453L5.37721 11.4953L2.78053 11.4963L2.78059 11.6463ZM5.37727 11.6453V11.7954H13.5062V11.6453V11.4953H5.37727V11.6453ZM13.5062 11.6453L13.5061 11.7954L15.9778 11.7963L15.9779 11.6463L15.9779 11.4963L13.5062 11.4953L13.5062 11.6453ZM15.9779 11.6463L15.9777 11.7963C16.1539 11.7966 16.3374 11.7994 16.5186 11.7973L16.5169 11.6473L16.5152 11.4973C16.336 11.4994 16.1605 11.4966 15.9781 11.4963L15.9779 11.6463ZM16.5169 11.6473L16.5185 11.7973C16.7351 11.7949 16.9784 11.8072 17.2158 11.786L17.2025 11.6366L17.1891 11.4872C16.9665 11.5071 16.7584 11.4947 16.5153 11.4973L16.5169 11.6473ZM17.2025 11.6366L17.2157 11.786C17.5647 11.755 17.8388 11.4771 17.8446 11.1175L17.6947 11.1151L17.5447 11.1127C17.5414 11.3123 17.3918 11.4691 17.1892 11.4871L17.2025 11.6366ZM17.6947 11.1151L17.8447 11.114C17.8438 10.986 17.804 10.8777 17.7726 10.7888L17.6312 10.8387L17.4897 10.8886C17.5235 10.9843 17.5442 11.0462 17.5447 11.1161L17.6947 11.1151ZM17.6312 10.8387L17.7722 10.7877C17.5511 10.1761 17.3163 9.56629 17.0869 8.9604L16.9466 9.01351L16.8063 9.06663C17.0365 9.67462 17.27 10.2809 17.4901 10.8897L17.6312 10.8387ZM16.9466 9.01351L17.0869 8.96056L15.8955 5.80333L15.7552 5.85629L15.6149 5.90925L16.8063 9.06647L16.9466 9.01351ZM15.7552 5.85629L15.8954 5.803L14.7226 2.71706L14.5823 2.77035L14.4421 2.82364L15.615 5.90958L15.7552 5.85629ZM14.5823 2.77035L14.7225 2.71692C14.5329 2.21955 14.355 1.74318 14.1649 1.24429L14.0247 1.29769L13.8846 1.35109C14.0675 1.8314 14.2588 2.3426 14.4422 2.82378L14.5823 2.77035ZM14.0247 1.29769L14.1645 1.24314C14.1209 1.13152 14.0493 1.04989 13.9876 0.984122L13.8782 1.08676L13.7689 1.18939C13.8266 1.25089 13.8636 1.29743 13.885 1.35225L14.0247 1.29769ZM13.8782 1.08676L13.9876 0.984042C13.8362 0.822925 13.6526 0.780984 13.475 0.768198L13.4642 0.917811L13.4534 1.06742C13.5984 1.07786 13.6923 1.10793 13.7689 1.18947L13.8782 1.08676ZM13.4642 0.917811L13.4749 0.768193C13.1186 0.742707 12.7479 0.752005 12.4026 0.752186L12.4027 0.902186L12.4027 1.05219C12.7586 1.052 13.1114 1.04296 13.4535 1.06743L13.4642 0.917811ZM12.4027 0.902186L12.4026 0.752186L10.4983 0.753162L10.4984 0.903162L10.4984 1.05316L12.4027 1.05219L12.4027 0.902186ZM10.4984 0.903162L10.4983 0.753162C8.73513 0.753437 6.84847 0.720787 5.08796 0.758079L5.09114 0.908045L5.09431 1.05801C6.85092 1.0208 8.7275 1.05344 10.4984 1.05316L10.4984 0.903162Z" fill="black"/>
</svg>
