<svg width="167" height="48" viewBox="0 0 167 48" fill="none" xmlns="http://www.w3.org/2000/svg">
<path fill-rule="evenodd" clip-rule="evenodd" d="M9.1332 0.0594175C14.806 0.0483758 22.701 -0.908717 25.6351 5.29086C26.4799 7.07604 26.4556 9.62783 25.7133 11.4403C24.5754 14.2178 22.4265 15.4503 19.8236 16.5457L19.9848 16.575C28.3315 18.1198 31.7855 25.7131 30.2494 33.4989C29.3897 37.811 26.8336 41.5968 23.1557 44.0057C17.5861 47.7208 9.10203 48.1298 3.17324 44.7684L3.86562 46.0467C4.12648 46.5287 3.94719 47.1316 3.46523 47.3924C2.98344 47.6529 2.38142 47.4736 2.1205 46.992L0.119525 43.2957C-0.090099 42.9084 -0.0146645 42.4435 0.272845 42.1405C0.460045 41.8982 1.20509 41.8052 1.53456 41.8143L5.28652 41.87C5.83416 41.8851 6.26614 42.3409 6.25136 42.8885C6.23628 43.4364 5.77966 43.8684 5.23183 43.8534L3.66933 43.8094C6.00441 45.2425 8.41122 45.6931 11.2934 45.7655C11.949 45.758 12.655 45.7381 13.2992 45.6454C21.3522 44.4853 25.2269 36.0414 24.5658 28.6581C24.0301 22.6758 21.1256 17.4211 14.4584 17.3895C12.8665 17.382 11.2728 17.3882 9.68593 17.4002C9.68275 19.1794 9.51264 33.7884 9.78261 34.4168C10.0006 34.9214 10.9125 35.0761 11.2426 35.577C11.1192 36.0192 8.54926 36.0322 7.80409 36.3661C6.6124 36.9006 5.71735 37.1574 4.67714 38.0594C3.98543 38.6593 3.16491 39.4883 2.42421 39.9442C2.14382 39.8479 2.25913 39.9335 2.09413 39.6424C2.17441 38.9655 3.18543 37.8182 3.42324 36.9735C4.15655 34.3693 3.90211 31.3204 3.89882 28.6053L3.89296 18.5623C3.87695 15.7354 3.87793 12.9078 3.89589 10.0809C3.90995 8.06442 3.92564 6.02517 3.88613 4.00766C3.87595 3.49025 3.75151 2.88253 3.52382 2.41098C2.99225 1.31005 1.96552 1.10682 0.903704 0.740081C0.712606 0.442664 0.77355 0.536491 0.825579 0.0896909C3.59442 0.0583856 6.36415 0.0480241 9.1332 0.0594175ZM17.9984 2.85141C15.8668 0.997174 12.6647 1.23694 10.015 1.31528C9.86758 1.47836 9.72935 1.65869 9.71523 1.88168C9.61875 3.41824 9.6555 5.112 9.65859 6.64438C9.65335 9.86238 9.66465 13.0809 9.69277 16.2987C12.6774 16.3422 16.1718 16.8253 18.3832 14.6942C21.0497 11.5485 21.2478 5.67826 17.9984 2.85141Z" fill="white"/>
<path fill-rule="evenodd" clip-rule="evenodd" d="M161.327 39.1668C161.952 39.1668 162.436 39.2821 162.78 39.5116C163.131 39.7339 163.389 39.9884 163.553 40.2752H163.694V39.3182H164.35V45.8797C164.35 46.1378 164.276 46.3388 164.127 46.4823C163.979 46.6257 163.752 46.6981 163.448 46.6981H159.557V46.117H163.307C163.549 46.117 163.67 46.0089 163.67 45.7938V43.5457H163.53C163.428 43.7179 163.284 43.8867 163.096 44.0516C162.916 44.2165 162.682 44.3523 162.393 44.4598C162.104 44.5602 161.748 44.6102 161.327 44.6102C160.819 44.6102 160.354 44.5031 159.932 44.2879C159.518 44.0728 159.19 43.7682 158.948 43.3739C158.706 42.9724 158.584 42.4988 158.584 41.9539V41.8241C158.584 41.272 158.706 40.7985 158.948 40.4041C159.198 40.0098 159.53 39.7052 159.944 39.4901C160.358 39.2749 160.819 39.1668 161.327 39.1668ZM161.491 39.7479C160.85 39.7479 160.327 39.9345 159.92 40.3075C159.514 40.6732 159.311 41.1859 159.311 41.8456V41.9325C159.311 42.5849 159.514 43.0977 159.92 43.4706C160.327 43.8434 160.85 44.0301 161.491 44.0301C162.139 44.0301 162.663 43.8434 163.061 43.4706C163.467 43.0977 163.67 42.5849 163.67 41.9325V41.8456C163.67 41.1859 163.467 40.6732 163.061 40.3075C162.663 39.9345 162.139 39.7479 161.491 39.7479Z" fill="white"/>
<path fill-rule="evenodd" clip-rule="evenodd" d="M96.6644 39.1668C97.1957 39.1668 97.6645 39.2714 98.0707 39.4793C98.4847 39.6801 98.809 39.974 99.0434 40.3612C99.2777 40.7412 99.3949 41.1968 99.3949 41.7274V42.0721H94.5434C94.5668 42.7246 94.7817 43.2302 95.1879 43.5887C95.6019 43.9401 96.1215 44.116 96.7465 44.1161C97.2777 44.1161 97.6879 44.0044 97.9769 43.7821C98.2738 43.5598 98.5004 43.2874 98.6566 42.9647L99.2894 43.2225C99.1723 43.4591 99.0081 43.6923 98.7973 43.9217C98.5942 44.144 98.3285 44.3307 98.0004 44.4813C97.6723 44.6247 97.2543 44.6971 96.7465 44.6971C96.1606 44.6971 95.6488 44.5854 95.2113 44.3631C94.7818 44.1337 94.4457 43.8148 94.2035 43.4061C93.9614 42.9974 93.8403 42.5275 93.8402 41.9969V41.867C93.8403 41.3293 93.9614 40.8594 94.2035 40.4579C94.4457 40.0492 94.7779 39.7339 95.1996 39.5116C95.6293 39.2821 96.1176 39.1668 96.6644 39.1668ZM96.6644 39.7479C96.0942 39.7479 95.6215 39.9024 95.2465 40.2108C94.8715 40.512 94.641 40.946 94.5551 41.5125H98.6801C98.6488 40.946 98.4496 40.512 98.0824 40.2108C97.7152 39.9024 97.2426 39.7479 96.6644 39.7479Z" fill="white"/>
<path fill-rule="evenodd" clip-rule="evenodd" d="M117.929 39.1668C118.507 39.1668 119.011 39.2821 119.441 39.5116C119.878 39.7338 120.214 40.0492 120.449 40.4579C120.691 40.8594 120.812 41.3293 120.812 41.867V41.9969C120.812 42.5346 120.691 43.0081 120.449 43.4168C120.214 43.8183 119.878 44.1337 119.441 44.3631C119.011 44.5854 118.507 44.6971 117.929 44.6971C117.351 44.6971 116.843 44.5854 116.406 44.3631C115.976 44.1337 115.64 43.8183 115.398 43.4168C115.164 43.0081 115.046 42.5346 115.046 41.9969V41.867C115.046 41.3293 115.164 40.8594 115.398 40.4579C115.64 40.0492 115.976 39.7339 116.406 39.5116C116.843 39.2821 117.351 39.1669 117.929 39.1668ZM117.929 39.7479C117.265 39.7479 116.734 39.9453 116.335 40.3397C115.945 40.7269 115.749 41.2433 115.749 41.8885V41.9754C115.749 42.6207 115.945 43.1406 116.335 43.535C116.734 43.9223 117.265 44.116 117.929 44.1161C118.601 44.1161 119.132 43.9222 119.523 43.535C119.913 43.1406 120.109 42.6207 120.109 41.9754V41.8885C120.109 41.2433 119.913 40.7269 119.523 40.3397C119.132 39.9453 118.601 39.7479 117.929 39.7479Z" fill="white"/>
<path d="M91.2318 39.8993H90.4828C90.0533 39.8993 89.7093 40.0101 89.4516 40.2323C89.1937 40.4546 89.0648 40.8029 89.0648 41.2762V44.5457H88.3617V39.3182H89.0414V39.9745H89.182C89.2914 39.7378 89.4516 39.5654 89.6625 39.4579C89.8812 39.3504 90.1822 39.2967 90.5648 39.2967H91.2318V39.8993Z" fill="white"/>
<path d="M104.366 39.3182H106.358V39.8993H104.366V43.6424C104.366 43.8576 104.483 43.9657 104.717 43.9657H106.053V44.5457H104.577C104.272 44.5457 104.041 44.4743 103.885 44.3309C103.737 44.1875 103.662 43.9865 103.662 43.7284V39.8993H101.834V39.3182H103.662V37.3602H104.366V39.3182Z" fill="white"/>
<path d="M112.439 39.8993H111.689C111.259 39.8993 110.915 40.0101 110.658 40.2323C110.4 40.4546 110.271 40.8029 110.271 41.2762V44.5457H109.568V39.3182H110.247V39.9745H110.388C110.497 39.7378 110.658 39.5654 110.869 39.4579C111.087 39.3504 111.388 39.2967 111.771 39.2967H112.439V39.8993Z" fill="white"/>
<path d="M129.6 44.5457H128.897V37.0155H129.6V44.5457Z" fill="white"/>
<path d="M134.01 44.5457H133.307V39.3182H134.01V44.5457Z" fill="white"/>
<path d="M139.756 44.0516H139.896L141.771 39.3182H142.521L140.388 44.5457H139.264L137.131 39.3182H137.881L139.756 44.0516Z" fill="white"/>
<path d="M146.343 44.5457H145.64V39.3182H146.343V44.5457Z" fill="white"/>
<path d="M152.956 39.2098C153.37 39.2099 153.75 39.2894 154.093 39.4471C154.437 39.6049 154.71 39.8452 154.913 40.1678C155.124 40.4833 155.23 40.8818 155.23 41.3622V44.5457H154.527V41.4051C154.527 40.8316 154.37 40.4189 154.058 40.1678C153.746 39.9169 153.327 39.7909 152.804 39.7909C152.218 39.7909 151.73 39.9705 151.339 40.3289C150.949 40.6804 150.753 41.2153 150.753 41.9325V44.5457H150.05V39.3182H150.73V40.286H150.87C151.011 40.0064 151.242 39.7589 151.562 39.5438C151.882 39.3216 152.347 39.2098 152.956 39.2098Z" fill="white"/>
<path d="M133.659 37.2957C133.838 37.2958 133.983 37.3493 134.092 37.4569C134.209 37.5572 134.268 37.6897 134.268 37.8543C134.268 38.012 134.209 38.1452 134.092 38.2528C133.983 38.3603 133.838 38.4139 133.659 38.4139C133.487 38.4139 133.342 38.3603 133.225 38.2528C133.108 38.1452 133.049 38.0121 133.049 37.8543C133.049 37.6896 133.108 37.5572 133.225 37.4569C133.342 37.3493 133.487 37.2957 133.659 37.2957Z" fill="white"/>
<path d="M145.992 37.2957C146.171 37.2958 146.316 37.3493 146.425 37.4569C146.542 37.5572 146.601 37.6897 146.601 37.8543C146.601 38.0121 146.542 38.1452 146.425 38.2528C146.316 38.3603 146.171 38.4139 145.992 38.4139C145.82 38.4139 145.675 38.3603 145.558 38.2528C145.441 38.1452 145.382 38.0121 145.382 37.8543C145.382 37.6896 145.441 37.5572 145.558 37.4569C145.675 37.3493 145.82 37.2957 145.992 37.2957Z" fill="white"/>
<path fill-rule="evenodd" clip-rule="evenodd" d="M39.1723 16.2098C41.1665 16.0808 43.1864 16.0827 44.8637 17.3319C45.7015 17.9562 46.3241 18.8266 46.6449 19.8211C47.5207 22.4495 46.8286 27.3126 47.0043 30.2411C47.0688 31.3195 46.6627 33.4507 47.642 34.1747C48.3599 34.3951 48.7883 33.8498 49.4916 33.5418L49.5551 33.6756C48.8356 36.6457 43.8362 37.5298 42.8998 33.3446C40.5554 36.3064 36.5739 37.502 33.766 34.4598C33.6605 34.3175 33.5632 34.1685 33.474 34.0155C32.7374 32.7532 32.6049 31.1871 32.9965 29.7957C34.2136 25.4732 39.5417 25.266 42.8402 23.4159C42.8863 21.1489 43.1069 16.5074 39.2631 17.243C36.1513 17.8394 39.2778 22.1274 36.2826 22.7284C34.4523 23.095 33.3079 21.2013 33.9701 19.6327C34.8081 17.348 36.9567 16.4891 39.1723 16.2098ZM42.6098 24.6981C40.7151 25.465 38.2881 26.3554 37.4887 28.4022C36.8404 30.0631 36.8156 31.8701 38.0775 33.202C39.8344 34.4503 42.6571 33.6238 42.808 31.4032C42.9425 29.4212 42.9141 26.8047 42.8187 24.7948L42.6098 24.6981Z" fill="white"/>
<path d="M58.3734 16.1141C59.2805 16.0659 60.1881 16.2021 61.0414 16.5135C62.3939 17.0102 63.717 17.9426 64.3109 19.2879C64.9022 20.6276 64.7876 22.1861 63.2338 22.7704C62.8019 22.9446 61.9985 23.0899 61.5873 22.8329C59.766 22.002 61.4643 17.8653 59.5687 17.2704C56.7478 16.3856 55.0906 19.6854 54.7865 21.7752C54.4524 24.0717 54.3468 25.4109 54.6322 27.4745C55.2028 31.6 57.82 34.6524 62.1273 32.9315C63.3592 32.1693 63.5881 31.604 64.4662 30.4588L64.6342 30.4735C65.1326 31.0614 64.7302 31.4229 64.4701 32.0252C62.604 36.3458 57.0782 37.5223 53.4428 34.6024C49.1699 31.1414 49.277 23.0709 52.6303 19.0457C54.2457 17.1065 55.9156 16.316 58.3734 16.1141Z" fill="white"/>
<path fill-rule="evenodd" clip-rule="evenodd" d="M116.231 16.2039C127.287 14.8865 128.695 34.0313 118.398 36.1288C107.22 37.5861 105.799 18.0892 116.231 16.2039ZM117.116 17.1161C116.026 17.3985 115.511 17.7997 114.9 18.8045C113.03 21.8786 112.507 35.0116 117.485 35.2733C121.795 34.2074 121.205 24.4284 120.459 21.0916C120.054 19.2769 119.199 17.2883 117.116 17.1161Z" fill="white"/>
<path fill-rule="evenodd" clip-rule="evenodd" d="M159.817 16.1122C159.974 16.1062 160.239 16.1197 160.4 16.1288C162.159 16.2177 163.808 17.013 164.972 18.3338C166.628 20.2052 167.137 22.8681 166.97 25.3016C166.251 25.4309 164.837 25.4177 164.037 25.452C161.447 25.5625 158.851 25.5068 156.261 25.5838C156.278 26.4806 156.386 27.3735 156.586 28.2479C157.897 33.8795 163.345 35.5131 166.507 30.3817C166.659 30.5097 166.883 30.6431 166.892 30.8202C166.93 31.599 166.085 32.7876 165.637 33.3221C164.161 35.0846 162.961 35.9115 160.713 36.1532C158.81 36.3721 156.898 35.8173 155.407 34.6141C149.765 30.0549 151.097 16.9426 159.817 16.1122ZM159.749 17.1112C156.802 17.8713 156.229 21.8118 156.273 24.412L159.445 24.3924C160.526 24.3839 161.751 24.4029 162.822 24.3573C162.865 21.9347 163.093 17.4019 159.749 17.1112Z" fill="white"/>
<path d="M71.5697 4.28989C71.8669 4.76119 71.7323 23.8606 71.7582 26.1668C73.7127 23.8404 75.9115 21.7462 77.806 19.3631C79.0983 17.7375 76.6705 17.2739 76.5521 16.6278C77.0235 16.3211 82.8663 16.357 83.434 16.5995L83.4476 16.7254C82.9026 17.2056 81.3272 17.6594 80.7416 18.1356C79.1148 19.4588 77.5461 21.2632 76.1019 22.8016C77.8457 25.3882 79.3135 28.2849 81.0053 30.9051C81.9698 32.3989 82.9362 34.8137 84.7416 35.3055L84.8646 35.3387L84.9711 35.5272L84.9027 35.7479C84.5774 35.9406 84.1118 35.8797 83.7074 35.8758C82.8177 35.8836 77.7635 36.0725 77.3822 35.6717C77.4717 35.3674 78.0186 34.8806 78.2924 34.577C77.0417 32.0607 74.8279 28.4557 73.3969 25.8866C72.7907 26.5424 72.2833 27.1132 71.7182 27.8045C71.7131 29.3772 71.4905 33.0498 72.0512 34.5204C72.1854 34.8722 73.2571 35.176 73.4281 35.6327L73.3539 35.786C72.7541 35.9518 66.537 35.9372 65.9408 35.7684L65.8588 35.5829C66.0889 35.006 67.328 35.2312 67.4838 34.0985C67.6761 32.7014 67.6099 31.2676 67.6107 29.8573L67.6078 13.7987C67.6071 12.2767 67.6451 10.7497 67.5619 9.22934C67.4523 7.22686 66.3286 7.67733 65.7631 7.15707L65.7992 6.94711C66.2885 6.6795 67.4119 6.28729 67.9769 6.0643C69.3307 5.53001 70.2767 5.0352 71.4828 4.24008L71.5697 4.28989Z" fill="white"/>
<path d="M131.841 16.0799C132.092 16.4289 132.021 18.4179 132.022 18.9373C134.607 15.5116 138.74 14.6858 140.675 19.1385C141.729 17.5038 143.561 15.9817 145.621 16.1248C150.232 16.4459 149.592 21.6679 149.586 24.9784C149.598 26.9737 149.594 28.9693 149.577 30.9647C149.56 32.0165 149.45 33.2624 149.777 34.2704C149.973 34.8759 151.245 35.1941 151.223 35.7508C150.832 36.0014 144.49 35.9204 144.044 35.7196C144.175 35.3111 145.474 34.6097 145.5 33.8875C145.627 30.3938 145.528 26.8832 145.57 23.3856C145.608 22.4406 145.544 21.4661 145.462 20.534C145.378 19.5743 144.708 18.4225 143.624 18.4383C140.36 18.4863 140.844 22.2989 140.851 24.3661L140.857 30.2704C140.851 31.7716 140.427 34.2273 141.829 35.1268C142.065 35.2794 142.726 35.5246 143.044 35.6717C142.129 35.8974 135.655 36.1024 135.227 35.6688C135.356 35.3488 136.686 34.6766 136.709 34.0057C136.839 29.628 136.85 25.2063 136.755 20.8172C136.776 17.3609 132.21 18.2102 132.084 20.5379C131.855 24.8032 131.973 29.7337 132.12 34.0477C132.132 34.3869 133.257 35.2919 133.515 35.6971L133.445 35.8153C132.349 35.9037 127.245 35.985 126.284 35.7801L126.207 35.5819C126.546 34.9994 127.87 35.1579 127.877 33.6317C127.897 29.1035 128.083 24.266 127.882 19.7596C127.166 18.4959 126.687 18.9961 126.287 18.4032C126.434 17.9599 128.186 17.5028 128.745 17.3075C129.744 16.9612 130.717 16.5437 131.658 16.0584L131.841 16.0799Z" fill="white"/>
<path d="M100.186 4.92953C101.183 4.76433 107.492 4.71158 108.321 4.92953L108.415 5.10727C108.228 5.52406 107.3 5.8186 107.013 6.15219C106.753 6.45558 106.577 7.24025 106.577 7.6434C106.576 9.41105 106.58 11.2087 106.581 12.9745L106.598 24.3495L106.577 30.4666C106.572 31.2925 106.583 32.212 106.583 33.0233C106.585 34.6738 107.302 34.7826 108.431 35.5438L108.454 35.7196C108.105 35.9431 105.967 35.8845 105.464 35.8846C104.479 35.8889 101.128 35.9628 100.347 35.7664L100.245 35.5731C100.527 35.0419 101.96 35.1555 102.049 33.5663C102.129 32.1404 102.088 30.7036 102.087 29.2752L102.081 20.2782C98.8093 20.1745 95.2383 20.2472 91.9476 20.2586C91.9128 22.2298 91.735 33.1992 92.098 34.2303C92.2725 34.724 92.674 34.8021 93.1039 34.9998C93.4169 35.1436 93.6969 35.29 93.8129 35.6161L93.7182 35.8094C93.1515 35.8673 91.7298 35.9176 91.1684 35.8827C90.3516 35.8319 85.9598 36.0575 85.5912 35.6717C85.8267 34.8562 87.4735 35.4452 87.4642 32.8114C87.4335 24.0943 87.6415 15.3173 87.35 6.6141C87.3287 5.98548 85.6329 5.67118 85.3559 5.08676L85.4809 4.94907C86.0669 4.79766 86.6731 4.83085 87.2797 4.83383C88.1962 4.81625 93.4614 4.68874 93.9008 4.98618L93.931 5.20395C93.4445 5.7329 92.2034 5.40843 92.0248 7.00961C91.876 8.35026 91.9302 9.68368 91.9281 11.0311C91.9137 13.7015 91.9226 16.3726 91.9564 19.0428C95.1845 19.1134 98.8476 19.1004 102.074 19.0331C102.078 17.1611 102.338 7.60785 101.881 6.54477C101.489 5.6317 100.399 5.72627 100.091 5.00473L100.186 4.92953Z" fill="white"/>
</svg>
