<svg width="30" height="30" viewBox="0 0 30 30" fill="none" xmlns="http://www.w3.org/2000/svg">
<path d="M24.1557 15.794H20.4394V12.0777H22.2975C22.7903 12.0777 23.263 11.882 23.6114 11.5335C23.9599 11.185 24.1557 10.7124 24.1557 10.2196V4.64523C24.1557 4.15243 23.9599 3.67981 23.6114 3.33134C23.263 2.98288 22.7903 2.78711 22.2975 2.78711H7.43256C6.93975 2.78711 6.46713 2.98288 6.11866 3.33134C5.7702 3.67981 5.57443 4.15243 5.57443 4.64523V10.2196C5.57443 10.7124 5.7702 11.185 6.11866 11.5335C6.46713 11.882 6.93975 12.0777 7.43256 12.0777H9.29068V15.794H5.57443C5.08163 15.794 4.60901 15.9897 4.26054 16.3382C3.91207 16.6867 3.71631 17.1593 3.71631 17.6521V19.5102C3.71631 20.003 3.91207 20.4756 4.26054 20.8241C4.60901 21.1726 5.08163 21.3683 5.57443 21.3683H6.50349V26.0137C6.50349 26.2601 6.60138 26.4964 6.77561 26.6706C6.94984 26.8448 7.18615 26.9427 7.43256 26.9427C7.67896 26.9427 7.91527 26.8448 8.0895 26.6706C8.26373 26.4964 8.36162 26.2601 8.36162 26.0137V21.3683H21.3685V26.0137C21.3685 26.2601 21.4664 26.4964 21.6406 26.6706C21.8148 26.8448 22.0511 26.9427 22.2975 26.9427C22.5439 26.9427 22.7803 26.8448 22.9545 26.6706C23.1287 26.4964 23.2266 26.2601 23.2266 26.0137V21.3683H24.1557C24.6485 21.3683 25.1211 21.1726 25.4696 20.8241C25.818 20.4756 26.0138 20.003 26.0138 19.5102V17.6521C26.0138 17.1593 25.818 16.6867 25.4696 16.3382C25.1211 15.9897 24.6485 15.794 24.1557 15.794ZM7.43256 4.64523H22.2975V10.2196H7.43256V4.64523ZM11.1488 12.0777H18.5813V15.794H11.1488V12.0777ZM24.1557 19.5102H5.57443V17.6521H24.1557V19.5102Z" fill="black" stroke="#FBF1E8" stroke-width="0.6"/>
</svg>
