<svg width="33" height="23" viewBox="0 0 33 23" fill="none" xmlns="http://www.w3.org/2000/svg">
<mask id="path-1-outside-1_81_278" maskUnits="userSpaceOnUse" x="-0.819824" y="-0.819824" width="34" height="23" fill="black">
<rect fill="white" x="-0.819824" y="-0.819824" width="34" height="23"/>
<path fill-rule="evenodd" clip-rule="evenodd" d="M8.56287 0.187494L12.1693 0.18847L24.7289 0.186517C26.1653 0.185795 27.178 0.162365 28.3051 1.27831C29.4468 2.40914 29.4208 3.56049 29.4193 5.02636L29.4164 7.13671C30.1466 7.1274 30.6631 7.11584 31.3265 7.48535C31.9438 7.83074 32.3985 8.40783 32.5902 9.08886C32.6707 9.37156 32.7063 9.66527 32.6957 9.95898C32.683 10.3267 32.605 10.7895 32.5531 11.1611L32.2924 13.043L31.9877 15.2832C31.93 15.7058 31.8872 16.1572 31.7972 16.5723C31.5588 17.6706 30.7822 18.3873 29.7308 18.6826C29.6587 19.5376 29.7115 20.4358 29.5541 21.2988C29.4952 22.05 27.8583 21.9727 27.4154 21.8193C26.8255 21.6141 26.3442 19.3615 26.0853 18.7842L26.0648 18.7402L6.77478 18.7412C6.59427 19.2899 5.97879 21.3357 5.67908 21.665C5.52914 21.8299 5.26751 21.8845 5.05408 21.8955C4.60434 21.9183 3.86696 21.9892 3.51697 21.6553C3.3794 21.5241 3.30365 21.3506 3.26599 21.167C3.21249 20.9051 3.22691 20.6108 3.21228 20.3437C3.17826 19.7892 3.14733 19.2342 3.12048 18.6797C2.59738 18.5393 2.18666 18.318 1.79724 17.9365C1.47526 17.6168 1.23871 17.2204 1.11072 16.7852C1.00635 16.4423 0.954654 15.9239 0.90564 15.5557L0.669312 13.8096L0.349976 11.4502C0.292623 11.0191 0.237724 10.5925 0.194703 10.1621C0.0583498 8.79813 0.893144 7.57285 2.22498 7.22851C2.65041 7.11853 3.0252 7.13579 3.46228 7.13769C3.47789 6.38489 3.45628 5.61725 3.46423 4.86328C3.47044 4.27491 3.42746 3.69681 3.55701 3.11913C3.68637 2.5547 3.9426 2.027 4.30603 1.57617C4.97481 0.753107 5.84474 0.314431 6.88904 0.201166C7.13313 0.164315 8.23253 0.187119 8.56287 0.187494ZM27.1156 18.7451L27.0287 18.7568C27.0031 18.8003 27.0024 18.7844 27.0179 18.8301C27.2604 19.5465 27.5069 20.3355 27.767 21.041C28.0968 21.0465 28.4273 21.0456 28.7572 21.0381C28.7973 20.2819 28.8462 19.5014 28.8724 18.7461C28.3154 18.7415 27.6703 18.729 27.1156 18.7451ZM4.12732 18.7451L4.01794 18.7529C3.94822 18.8585 4.0789 20.7402 4.09705 21.0371C4.42824 21.0437 4.75996 21.0445 5.09119 21.0391L5.25818 20.5537C5.4662 19.9534 5.66968 19.3515 5.86853 18.748C5.29991 18.7299 4.69861 18.7417 4.12732 18.7451ZM30.1986 8.00878C29.6707 7.97189 29.0759 7.94468 28.5648 8.09277C27.7643 8.32726 27.2258 9.08347 27.1644 9.90136C27.1201 10.4896 27.1556 11.1 27.14 11.6914C27.1322 12.0581 27.2359 12.8816 26.6605 12.8379C26.4053 12.818 26.3245 12.6613 26.2357 12.4482L26.2279 12.4297C26.0198 12.321 25.8904 12.2622 25.6439 12.2588C24.9067 12.2484 24.1654 12.2533 23.4281 12.2539H19.4408L10.7035 12.2519C10.1859 12.2519 7.29264 12.186 6.96912 12.2978C6.6283 12.4159 6.51731 12.9726 6.09998 12.8242C5.97824 12.781 5.89958 12.6712 5.85486 12.5547C5.76154 12.3114 5.78878 12.0039 5.78552 11.7451C5.76959 10.4766 5.98104 8.83987 4.59802 8.18359C4.2586 8.02255 3.89306 7.9801 3.52087 7.98925C2.98884 7.98844 2.54035 7.95415 2.0531 8.20605C0.743007 8.88342 1.04282 10.108 1.19763 11.292L1.52673 13.7129L1.76599 15.4893C1.86896 16.2462 1.87873 16.8163 2.46716 17.3789C2.75253 17.6517 3.11898 17.8239 3.51111 17.8701C3.77009 17.9021 4.30317 17.8913 4.57752 17.8916H6.39978L12.4008 17.8896L23.4672 17.8906H27.1371C27.804 17.8906 28.4741 17.894 29.141 17.8848C29.6466 17.8778 30.1213 17.6721 30.4701 17.3037C30.9583 16.7881 30.9826 16.2305 31.0746 15.5644C31.1328 15.1433 31.1827 14.6958 31.2484 14.2764L31.6224 11.5781C31.6897 11.1005 31.8601 10.103 31.8197 9.68163C31.7836 9.32354 31.6504 8.98194 31.434 8.69433C31.1586 8.33459 30.6597 8.04102 30.1986 8.00878ZM8.6615 1.04687C8.32003 1.04638 7.21896 1.02266 6.92029 1.06347C6.09257 1.18012 5.4228 1.51353 4.9115 2.19433C4.66254 2.52642 4.48645 2.90768 4.3949 3.31249C4.28106 3.81732 4.30853 4.47404 4.30896 5.0039L4.31091 7.19433C4.82119 7.31961 5.14456 7.46393 5.55603 7.79785C6.75761 8.77326 6.62063 10.1086 6.64294 11.501C6.91015 11.433 7.08093 11.407 7.35877 11.4053C8.84578 11.3958 10.3398 11.4008 11.8265 11.4014H24.2025C24.5296 11.4014 25.733 11.3808 25.9906 11.4326L26.2797 11.5107C26.2831 10.1936 26.1427 8.96734 27.1625 7.95312C27.5535 7.56408 28.0226 7.33292 28.556 7.20605L28.5599 5.17382C28.5617 3.93219 28.6705 2.86281 27.7103 1.89843C26.7943 0.97845 25.9268 1.04545 24.7465 1.04589L12.2152 1.04687H8.6615Z"/>
</mask>
<path fill-rule="evenodd" clip-rule="evenodd" d="M8.56287 0.187494L12.1693 0.18847L24.7289 0.186517C26.1653 0.185795 27.178 0.162365 28.3051 1.27831C29.4468 2.40914 29.4208 3.56049 29.4193 5.02636L29.4164 7.13671C30.1466 7.1274 30.6631 7.11584 31.3265 7.48535C31.9438 7.83074 32.3985 8.40783 32.5902 9.08886C32.6707 9.37156 32.7063 9.66527 32.6957 9.95898C32.683 10.3267 32.605 10.7895 32.5531 11.1611L32.2924 13.043L31.9877 15.2832C31.93 15.7058 31.8872 16.1572 31.7972 16.5723C31.5588 17.6706 30.7822 18.3873 29.7308 18.6826C29.6587 19.5376 29.7115 20.4358 29.5541 21.2988C29.4952 22.05 27.8583 21.9727 27.4154 21.8193C26.8255 21.6141 26.3442 19.3615 26.0853 18.7842L26.0648 18.7402L6.77478 18.7412C6.59427 19.2899 5.97879 21.3357 5.67908 21.665C5.52914 21.8299 5.26751 21.8845 5.05408 21.8955C4.60434 21.9183 3.86696 21.9892 3.51697 21.6553C3.3794 21.5241 3.30365 21.3506 3.26599 21.167C3.21249 20.9051 3.22691 20.6108 3.21228 20.3437C3.17826 19.7892 3.14733 19.2342 3.12048 18.6797C2.59738 18.5393 2.18666 18.318 1.79724 17.9365C1.47526 17.6168 1.23871 17.2204 1.11072 16.7852C1.00635 16.4423 0.954654 15.9239 0.90564 15.5557L0.669312 13.8096L0.349976 11.4502C0.292623 11.0191 0.237724 10.5925 0.194703 10.1621C0.0583498 8.79813 0.893144 7.57285 2.22498 7.22851C2.65041 7.11853 3.0252 7.13579 3.46228 7.13769C3.47789 6.38489 3.45628 5.61725 3.46423 4.86328C3.47044 4.27491 3.42746 3.69681 3.55701 3.11913C3.68637 2.5547 3.9426 2.027 4.30603 1.57617C4.97481 0.753107 5.84474 0.314431 6.88904 0.201166C7.13313 0.164315 8.23253 0.187119 8.56287 0.187494ZM27.1156 18.7451L27.0287 18.7568C27.0031 18.8003 27.0024 18.7844 27.0179 18.8301C27.2604 19.5465 27.5069 20.3355 27.767 21.041C28.0968 21.0465 28.4273 21.0456 28.7572 21.0381C28.7973 20.2819 28.8462 19.5014 28.8724 18.7461C28.3154 18.7415 27.6703 18.729 27.1156 18.7451ZM4.12732 18.7451L4.01794 18.7529C3.94822 18.8585 4.0789 20.7402 4.09705 21.0371C4.42824 21.0437 4.75996 21.0445 5.09119 21.0391L5.25818 20.5537C5.4662 19.9534 5.66968 19.3515 5.86853 18.748C5.29991 18.7299 4.69861 18.7417 4.12732 18.7451ZM30.1986 8.00878C29.6707 7.97189 29.0759 7.94468 28.5648 8.09277C27.7643 8.32726 27.2258 9.08347 27.1644 9.90136C27.1201 10.4896 27.1556 11.1 27.14 11.6914C27.1322 12.0581 27.2359 12.8816 26.6605 12.8379C26.4053 12.818 26.3245 12.6613 26.2357 12.4482L26.2279 12.4297C26.0198 12.321 25.8904 12.2622 25.6439 12.2588C24.9067 12.2484 24.1654 12.2533 23.4281 12.2539H19.4408L10.7035 12.2519C10.1859 12.2519 7.29264 12.186 6.96912 12.2978C6.6283 12.4159 6.51731 12.9726 6.09998 12.8242C5.97824 12.781 5.89958 12.6712 5.85486 12.5547C5.76154 12.3114 5.78878 12.0039 5.78552 11.7451C5.76959 10.4766 5.98104 8.83987 4.59802 8.18359C4.2586 8.02255 3.89306 7.9801 3.52087 7.98925C2.98884 7.98844 2.54035 7.95415 2.0531 8.20605C0.743007 8.88342 1.04282 10.108 1.19763 11.292L1.52673 13.7129L1.76599 15.4893C1.86896 16.2462 1.87873 16.8163 2.46716 17.3789C2.75253 17.6517 3.11898 17.8239 3.51111 17.8701C3.77009 17.9021 4.30317 17.8913 4.57752 17.8916H6.39978L12.4008 17.8896L23.4672 17.8906H27.1371C27.804 17.8906 28.4741 17.894 29.141 17.8848C29.6466 17.8778 30.1213 17.6721 30.4701 17.3037C30.9583 16.7881 30.9826 16.2305 31.0746 15.5644C31.1328 15.1433 31.1827 14.6958 31.2484 14.2764L31.6224 11.5781C31.6897 11.1005 31.8601 10.103 31.8197 9.68163C31.7836 9.32354 31.6504 8.98194 31.434 8.69433C31.1586 8.33459 30.6597 8.04102 30.1986 8.00878ZM8.6615 1.04687C8.32003 1.04638 7.21896 1.02266 6.92029 1.06347C6.09257 1.18012 5.4228 1.51353 4.9115 2.19433C4.66254 2.52642 4.48645 2.90768 4.3949 3.31249C4.28106 3.81732 4.30853 4.47404 4.30896 5.0039L4.31091 7.19433C4.82119 7.31961 5.14456 7.46393 5.55603 7.79785C6.75761 8.77326 6.62063 10.1086 6.64294 11.501C6.91015 11.433 7.08093 11.407 7.35877 11.4053C8.84578 11.3958 10.3398 11.4008 11.8265 11.4014H24.2025C24.5296 11.4014 25.733 11.3808 25.9906 11.4326L26.2797 11.5107C26.2831 10.1936 26.1427 8.96734 27.1625 7.95312C27.5535 7.56408 28.0226 7.33292 28.556 7.20605L28.5599 5.17382C28.5617 3.93219 28.6705 2.86281 27.7103 1.89843C26.7943 0.97845 25.9268 1.04545 24.7465 1.04589L12.2152 1.04687H8.6615Z" fill="black"/>
<path d="M8.56287 0.187494L8.56266 0.367494L8.56282 0.367494L8.56287 0.187494ZM12.1693 0.18847L12.1693 0.36847L12.1693 0.36847L12.1693 0.18847ZM24.7289 0.186517L24.7289 0.366517L24.729 0.366517L24.7289 0.186517ZM28.3051 1.27831L28.4317 1.15042L28.4317 1.15041L28.3051 1.27831ZM29.4193 5.02636L29.5993 5.02661V5.02654L29.4193 5.02636ZM29.4164 7.13671L29.2364 7.13646L29.2361 7.31903L29.4187 7.3167L29.4164 7.13671ZM31.3265 7.48535L31.4144 7.32827L31.4141 7.32809L31.3265 7.48535ZM32.5902 9.08886L32.4169 9.13764L32.4171 9.13813L32.5902 9.08886ZM32.6957 9.95898L32.5158 9.95244L32.5158 9.95277L32.6957 9.95898ZM32.5531 11.1611L32.3748 11.1362L32.3748 11.1364L32.5531 11.1611ZM32.2924 13.043L32.1141 13.0183L32.114 13.0187L32.2924 13.043ZM31.9877 15.2832L32.166 15.3075L32.166 15.3075L31.9877 15.2832ZM31.7972 16.5723L31.9731 16.6105L31.9732 16.6104L31.7972 16.5723ZM29.7308 18.6826L29.6822 18.5093L29.562 18.5431L29.5515 18.6675L29.7308 18.6826ZM29.5541 21.2988L29.377 21.2665L29.3753 21.2756L29.3746 21.2848L29.5541 21.2988ZM27.4154 21.8193L27.3563 21.9893L27.3565 21.9894L27.4154 21.8193ZM26.0853 18.7842L26.2496 18.7105L26.2484 18.7081L26.0853 18.7842ZM26.0648 18.7402L26.2279 18.6641L26.1795 18.5602L26.0648 18.5602L26.0648 18.7402ZM6.77478 18.7412L6.77477 18.5612L6.6445 18.5612L6.60379 18.685L6.77478 18.7412ZM5.67908 21.665L5.54596 21.5439L5.54593 21.5439L5.67908 21.665ZM5.05408 21.8955L5.06318 22.0753L5.0633 22.0753L5.05408 21.8955ZM3.51697 21.6553L3.64122 21.525L3.64119 21.525L3.51697 21.6553ZM3.26599 21.167L3.08963 21.203L3.08966 21.2031L3.26599 21.167ZM3.21228 20.3437L3.39201 20.3339L3.39194 20.3327L3.21228 20.3437ZM3.12048 18.6797L3.30027 18.671L3.29393 18.5399L3.16714 18.5058L3.12048 18.6797ZM1.79724 17.9365L1.67041 18.0643L1.67128 18.0651L1.79724 17.9365ZM1.11072 16.7852L1.28342 16.7344L1.28291 16.7327L1.11072 16.7852ZM0.90564 15.5557L1.08407 15.5319L1.08401 15.5315L0.90564 15.5557ZM0.669312 13.8096L0.847686 13.7854H0.847685L0.669312 13.8096ZM0.349976 11.4502L0.171548 11.4739L0.171602 11.4743L0.349976 11.4502ZM0.194703 10.1621L0.37381 10.1442L0.37381 10.1442L0.194703 10.1621ZM2.22498 7.22851L2.17993 7.05424L2.17992 7.05424L2.22498 7.22851ZM3.46228 7.13769L3.4615 7.31769L3.63857 7.31846L3.64224 7.14142L3.46228 7.13769ZM3.46423 4.86328L3.64422 4.86517V4.86517L3.46423 4.86328ZM3.55701 3.11913L3.38155 3.07892L3.38137 3.07975L3.55701 3.11913ZM4.30603 1.57617L4.16633 1.46265L4.16589 1.4632L4.30603 1.57617ZM6.88904 0.201166L6.90846 0.380273L6.91591 0.379149L6.88904 0.201166ZM27.1156 18.7451L27.1104 18.5652L27.1009 18.5655L27.0915 18.5667L27.1156 18.7451ZM27.0287 18.7568L27.0046 18.5784L26.918 18.5901L26.8736 18.6654L27.0287 18.7568ZM27.0179 18.8301L27.1884 18.7724L27.1884 18.7722L27.0179 18.8301ZM27.767 21.041L27.5981 21.1033L27.6407 21.2189L27.764 21.221L27.767 21.041ZM28.7572 21.0381L28.7613 21.218L28.9281 21.2142L28.937 21.0476L28.7572 21.0381ZM28.8724 18.7461L29.0523 18.7523L29.0587 18.5676L28.8739 18.5661L28.8724 18.7461ZM4.12732 18.7451L4.12623 18.5647L4.1145 18.5656L4.12732 18.7451ZM4.01794 18.7529L4.00512 18.5734L3.91663 18.5797L3.86774 18.6537L4.01794 18.7529ZM4.09705 21.0371L3.91738 21.0481L3.92751 21.2137L4.09344 21.2171L4.09705 21.0371ZM5.09119 21.0391L5.09416 21.219L5.22034 21.2169L5.26139 21.0976L5.09119 21.0391ZM5.25818 20.5537L5.0881 20.4948L5.08797 20.4951L5.25818 20.5537ZM5.86853 18.748L6.03949 18.8044L6.11481 18.5758L5.87427 18.5681L5.86853 18.748ZM30.1986 8.00878L30.2112 7.82922L30.2112 7.82922L30.1986 8.00878ZM28.5648 8.09277L28.5147 7.91988L28.5142 7.92003L28.5648 8.09277ZM27.1644 9.90136L27.3439 9.91489L27.3439 9.91484L27.1644 9.90136ZM27.14 11.6914L26.9601 11.6867L26.9601 11.6876L27.14 11.6914ZM26.6605 12.8379L26.6465 13.0173L26.6469 13.0174L26.6605 12.8379ZM26.2357 12.4482L26.4019 12.379L26.4016 12.3784L26.2357 12.4482ZM26.2279 12.4297L26.3938 12.3598L26.3687 12.3001L26.3112 12.2701L26.2279 12.4297ZM25.6439 12.2588L25.6414 12.4388H25.6414L25.6439 12.2588ZM23.4281 12.2539V12.4339H23.4282L23.4281 12.2539ZM19.4408 12.2539L19.4408 12.4339H19.4408V12.2539ZM10.7035 12.2519L10.7035 12.0719H10.7035L10.7035 12.2519ZM6.96912 12.2978L6.91029 12.1277L6.91018 12.1278L6.96912 12.2978ZM6.09998 12.8242L6.16028 12.6546L6.16024 12.6546L6.09998 12.8242ZM5.85486 12.5547L5.68679 12.6191L5.68682 12.6192L5.85486 12.5547ZM5.78552 11.7451L5.60554 11.7474V11.7474L5.78552 11.7451ZM4.59802 8.18359L4.67519 8.02097L4.67518 8.02096L4.59802 8.18359ZM3.52087 7.98925L3.5206 8.16931L3.5253 8.1692L3.52087 7.98925ZM2.0531 8.20605L1.97044 8.04615L1.97043 8.04616L2.0531 8.20605ZM1.19763 11.292L1.01915 11.3153L1.01927 11.3162L1.19763 11.292ZM1.52673 13.7129L1.70512 13.6889L1.70509 13.6886L1.52673 13.7129ZM1.76599 15.4893L1.5876 15.5133L1.58763 15.5135L1.76599 15.4893ZM2.46716 17.3789L2.34278 17.509L2.34278 17.509L2.46716 17.3789ZM3.51111 17.8701L3.53318 17.6915L3.53216 17.6913L3.51111 17.8701ZM4.57752 17.8916L4.57733 18.0716H4.57752V17.8916ZM6.39978 17.8916V18.0716H6.39984L6.39978 17.8916ZM12.4008 17.8896L12.4008 17.7096H12.4007L12.4008 17.8896ZM23.4672 17.8906L23.4671 18.0706H23.4672V17.8906ZM27.1371 17.8906V17.7106V17.7106V17.8906ZM29.141 17.8848L29.1385 17.7048H29.1385L29.141 17.8848ZM30.4701 17.3037L30.6008 17.4275L30.6008 17.4275L30.4701 17.3037ZM31.0746 15.5644L30.8963 15.5398L30.8963 15.5398L31.0746 15.5644ZM31.2484 14.2764L31.4263 14.3042L31.4267 14.3011L31.2484 14.2764ZM31.6224 11.5781L31.4442 11.553L31.4441 11.5534L31.6224 11.5781ZM31.8197 9.68163L31.9989 9.66447L31.9988 9.66357L31.8197 9.68163ZM31.434 8.69433L31.5778 8.58609L31.5769 8.58492L31.434 8.69433ZM8.6615 1.04687L8.66124 1.22687H8.6615V1.04687ZM6.92029 1.06347L6.89592 0.885126L6.89517 0.885232L6.92029 1.06347ZM4.9115 2.19433L4.76757 2.08623L4.76748 2.08636L4.9115 2.19433ZM4.3949 3.31249L4.21933 3.27279L4.21931 3.2729L4.3949 3.31249ZM4.30896 5.0039L4.12896 5.00405V5.00406L4.30896 5.0039ZM4.31091 7.19433L4.13091 7.19449L4.13104 7.33551L4.268 7.36914L4.31091 7.19433ZM5.55603 7.79785L5.66948 7.6581L5.66945 7.65808L5.55603 7.79785ZM6.64294 11.501L6.46297 11.5039L6.46662 11.7315L6.68731 11.6754L6.64294 11.501ZM7.35877 11.4053L7.35989 11.5853H7.35992L7.35877 11.4053ZM11.8265 11.4014L11.8265 11.5814H11.8265V11.4014ZM25.9906 11.4326L26.0377 11.2585L26.0261 11.2561L25.9906 11.4326ZM26.2797 11.5107L26.2327 11.6845L26.459 11.7457L26.4597 11.5112L26.2797 11.5107ZM27.1625 7.95312L27.2894 8.08075L27.2894 8.08072L27.1625 7.95312ZM28.556 7.20605L28.5977 7.38116L28.7358 7.34832L28.736 7.20639L28.556 7.20605ZM28.5599 5.17382L28.7399 5.17417V5.17407L28.5599 5.17382ZM27.7103 1.89843L27.5828 2.02543V2.02543L27.7103 1.89843ZM24.7465 1.04589L24.7465 1.22589H24.7465L24.7465 1.04589ZM12.2152 1.04687V1.22687H12.2152L12.2152 1.04687ZM8.56287 0.187494L8.56282 0.367494L12.1693 0.36847L12.1693 0.18847L12.1694 0.00847025L8.56291 0.00749369L8.56287 0.187494ZM12.1693 0.18847L12.1693 0.36847L24.7289 0.366517L24.7289 0.186517L24.7289 0.00651713L12.1693 0.00847025L12.1693 0.18847ZM24.7289 0.186517L24.729 0.366517C25.4539 0.366152 26.043 0.361129 26.5922 0.488975C27.1318 0.614602 27.6374 0.870527 28.1784 1.40622L28.3051 1.27831L28.4317 1.15041C27.8457 0.570151 27.2814 0.279817 26.6738 0.138352C26.0757 -0.000893533 25.4402 0.00615934 24.7288 0.00651714L24.7289 0.186517ZM28.3051 1.27831L28.1784 1.40621C29.2605 2.4779 29.2408 3.55323 29.2393 5.02618L29.4193 5.02636L29.5993 5.02654C29.6007 3.56775 29.6332 2.34038 28.4317 1.15042L28.3051 1.27831ZM29.4193 5.02636L29.2393 5.02611L29.2364 7.13646L29.4164 7.13671L29.5964 7.13696L29.5993 5.02661L29.4193 5.02636ZM29.4164 7.13671L29.4187 7.3167C30.1503 7.30737 30.6219 7.29889 31.239 7.6426L31.3265 7.48535L31.4141 7.32809C30.7044 6.93279 30.143 6.94743 29.4141 6.95673L29.4164 7.13671ZM31.3265 7.48535L31.2386 7.64242C31.8142 7.96447 32.2382 8.50258 32.4169 9.13764L32.5902 9.08886L32.7635 9.04008C32.5588 8.31309 32.0734 7.69702 31.4144 7.32827L31.3265 7.48535ZM32.5902 9.08886L32.4171 9.13813C32.4924 9.40275 32.5258 9.67763 32.5158 9.95244L32.6957 9.95898L32.8756 9.96551C32.8869 9.65291 32.8489 9.34037 32.7633 9.03959L32.5902 9.08886ZM32.6957 9.95898L32.5158 9.95277C32.5035 10.3081 32.428 10.7554 32.3748 11.1362L32.5531 11.1611L32.7314 11.186C32.782 10.8235 32.8624 10.3453 32.8756 9.96519L32.6957 9.95898ZM32.5531 11.1611L32.3748 11.1364L32.1141 13.0183L32.2924 13.043L32.4707 13.0677L32.7314 11.1858L32.5531 11.1611ZM32.2924 13.043L32.114 13.0187L31.8093 15.2589L31.9877 15.2832L32.166 15.3075L32.4707 13.0672L32.2924 13.043ZM31.9877 15.2832L31.8093 15.2589C31.7503 15.6918 31.7093 16.1282 31.6213 16.5341L31.7972 16.5723L31.9732 16.6104C32.0651 16.1862 32.1098 15.7197 32.166 15.3075L31.9877 15.2832ZM31.7972 16.5723L31.6213 16.5341C31.3989 17.5585 30.6784 18.2295 29.6822 18.5093L29.7308 18.6826L29.7795 18.8559C30.8859 18.5452 31.7186 17.7826 31.9731 16.6105L31.7972 16.5723ZM29.7308 18.6826L29.5515 18.6675C29.5149 19.1008 29.5099 19.548 29.4946 19.9813C29.4791 20.4188 29.4533 20.8484 29.377 21.2665L29.5541 21.2988L29.7312 21.3311C29.8123 20.8862 29.8388 20.4352 29.8544 19.994C29.8701 19.5488 29.8746 19.1194 29.9102 18.6977L29.7308 18.6826ZM29.5541 21.2988L29.3746 21.2848C29.366 21.3954 29.3027 21.4857 29.1683 21.5622C29.0295 21.6412 28.8327 21.6931 28.6077 21.7195C28.155 21.7727 27.6637 21.7148 27.4743 21.6492L27.4154 21.8193L27.3565 21.9894C27.61 22.0772 28.1585 22.1347 28.6497 22.0771C28.8967 22.0481 29.1478 21.9881 29.3464 21.8751C29.5494 21.7595 29.7128 21.5779 29.7335 21.3129L29.5541 21.2988ZM27.4154 21.8193L27.4745 21.6493C27.4435 21.6385 27.3965 21.6074 27.3366 21.537C27.278 21.4682 27.2168 21.3735 27.1541 21.2553C27.0288 21.019 26.9089 20.7109 26.7965 20.383C26.6845 20.0559 26.5827 19.7174 26.4915 19.4203C26.4021 19.129 26.3199 18.8674 26.2496 18.7105L26.0853 18.7842L25.9211 18.8578C25.9802 18.9896 26.0553 19.2261 26.1473 19.5259C26.2376 19.82 26.3416 20.1657 26.4559 20.4996C26.57 20.8326 26.6972 21.1622 26.8361 21.424C26.9056 21.555 26.9808 21.6744 27.0624 21.7704C27.1427 21.8646 27.2398 21.9488 27.3563 21.9893L27.4154 21.8193ZM26.0853 18.7842L26.2484 18.7081L26.2279 18.6641L26.0648 18.7402L25.9017 18.8163L25.9222 18.8603L26.0853 18.7842ZM26.0648 18.7402L26.0648 18.5602L6.77477 18.5612L6.77478 18.7412L6.77479 18.9212L26.0648 18.9202L26.0648 18.7402ZM6.77478 18.7412L6.60379 18.685C6.5115 18.9655 6.31515 19.6061 6.10144 20.2268C5.99495 20.5361 5.88569 20.8357 5.78516 21.0773C5.73485 21.1981 5.68767 21.3022 5.64498 21.3846C5.6006 21.4702 5.56693 21.5208 5.54596 21.5439L5.67908 21.665L5.8122 21.7862C5.86615 21.7269 5.91728 21.6416 5.96463 21.5502C6.01367 21.4555 6.06515 21.3414 6.11752 21.2156C6.22232 20.9638 6.33441 20.6559 6.44182 20.344C6.65591 19.7223 6.85756 19.0656 6.94577 18.7975L6.77478 18.7412ZM5.67908 21.665L5.54593 21.5439C5.44711 21.6525 5.25004 21.7052 5.04485 21.7157L5.05408 21.8955L5.0633 22.0753C5.28498 22.0639 5.61118 22.0072 5.81223 21.7862L5.67908 21.665ZM5.05408 21.8955L5.04497 21.7157C4.81272 21.7275 4.53138 21.7497 4.26148 21.7296C3.98666 21.7092 3.76899 21.6469 3.64122 21.525L3.51697 21.6553L3.39272 21.7855C3.61494 21.9975 3.94096 22.0668 4.23475 22.0886C4.53348 22.1109 4.8457 22.0863 5.06318 22.0753L5.05408 21.8955ZM3.51697 21.6553L3.64119 21.525C3.53809 21.4267 3.47516 21.291 3.44232 21.1308L3.26599 21.167L3.08966 21.2031C3.13213 21.4103 3.2207 21.6215 3.39274 21.7855L3.51697 21.6553ZM3.26599 21.167L3.44235 21.131C3.41863 21.0149 3.40925 20.8877 3.40445 20.751C3.39991 20.6218 3.39934 20.4677 3.39201 20.3339L3.21228 20.3437L3.03255 20.3536C3.03985 20.4868 3.03939 20.6134 3.04467 20.7636C3.04969 20.9063 3.05985 21.0572 3.08963 21.203L3.26599 21.167ZM3.21228 20.3437L3.39194 20.3327C3.35796 19.7789 3.32708 19.2246 3.30027 18.671L3.12048 18.6797L2.94069 18.6884C2.96758 19.2437 2.99855 19.7996 3.03262 20.3548L3.21228 20.3437ZM3.12048 18.6797L3.16714 18.5058C2.67123 18.3727 2.2886 18.1659 1.9232 17.8079L1.79724 17.9365L1.67128 18.0651C2.08471 18.4701 2.52354 18.7059 3.07383 18.8535L3.12048 18.6797ZM1.79724 17.9365L1.92407 17.8088C1.62356 17.5104 1.40282 17.1405 1.28341 16.7344L1.11072 16.7852L0.938029 16.8359C1.0746 17.3004 1.32696 17.7232 1.67041 18.0642L1.79724 17.9365ZM1.11072 16.7852L1.28291 16.7327C1.18418 16.4084 1.13485 15.9134 1.08407 15.5319L0.90564 15.5557L0.727214 15.5794C0.774459 15.9343 0.828515 16.4763 0.938522 16.8376L1.11072 16.7852ZM0.90564 15.5557L1.08401 15.5315L0.847686 13.7854L0.669312 13.8096L0.490938 13.8337L0.727266 15.5798L0.90564 15.5557ZM0.669312 13.8096L0.847685 13.7854L0.52835 11.426L0.349976 11.4502L0.171602 11.4743L0.490938 13.8337L0.669312 13.8096ZM0.349976 11.4502L0.528404 11.4265C0.471084 10.9956 0.41652 10.5715 0.37381 10.1442L0.194703 10.1621L0.0155949 10.18C0.0589286 10.6136 0.114163 11.0426 0.171548 11.4739L0.349976 11.4502ZM0.194703 10.1621L0.37381 10.1442C0.246105 8.86673 1.02595 7.72444 2.27003 7.40278L2.22498 7.22851L2.17992 7.05424C0.760341 7.42127 -0.129406 8.72952 0.0155952 10.18L0.194703 10.1621ZM2.22498 7.22851L2.27003 7.40278C2.66767 7.29999 3.01506 7.31574 3.4615 7.31769L3.46228 7.13769L3.46306 6.95769C3.03534 6.95583 2.63314 6.93708 2.17993 7.05424L2.22498 7.22851ZM3.46228 7.13769L3.64224 7.14142C3.65774 6.39422 3.63644 5.60294 3.64422 4.86517L3.46423 4.86328L3.28424 4.86138C3.27612 5.63157 3.29805 6.37555 3.28232 7.13396L3.46228 7.13769ZM3.46423 4.86328L3.64422 4.86517C3.65064 4.25661 3.6086 3.71164 3.73264 3.15852L3.55701 3.11913L3.38137 3.07975C3.24631 3.68197 3.29023 4.29322 3.28424 4.86138L3.46423 4.86328ZM3.55701 3.11913L3.73246 3.15935C3.85572 2.62155 4.09987 2.11873 4.44617 1.68913L4.30603 1.57617L4.16589 1.4632C3.78534 1.93528 3.51703 2.48785 3.38156 3.07892L3.55701 3.11913ZM4.30603 1.57617L4.44573 1.68968C5.08225 0.906314 5.90746 0.488683 6.90845 0.380116L6.88904 0.201166L6.86963 0.022215C5.78201 0.140178 4.86737 0.5999 4.16633 1.46265L4.30603 1.57617ZM6.88904 0.201166L6.91591 0.379149C7.02069 0.36333 7.33882 0.359203 7.69302 0.360369C8.03011 0.361479 8.40306 0.367312 8.56266 0.367494L8.56287 0.187494L8.56307 0.00749379C8.39234 0.00730005 8.05042 0.00154394 7.6942 0.000370905C7.35509 -0.000745788 7.00148 0.00215058 6.86217 0.0231825L6.88904 0.201166ZM27.1156 18.7451L27.0915 18.5667L27.0046 18.5784L27.0287 18.7568L27.0527 18.9352L27.1397 18.9235L27.1156 18.7451ZM27.0287 18.7568L26.8736 18.6654C26.8695 18.6725 26.868 18.6744 26.8625 18.6831C26.8612 18.6851 26.8396 18.7158 26.8313 18.7577C26.8216 18.8066 26.8336 18.8459 26.8374 18.8583C26.8399 18.8663 26.8469 18.8862 26.8475 18.888L27.0179 18.8301L27.1884 18.7722C27.186 18.7652 27.1839 18.7593 27.1827 18.7557C27.181 18.7511 27.1811 18.7513 27.1815 18.7526C27.1819 18.7538 27.1927 18.7858 27.1845 18.8276C27.1806 18.8469 27.1742 18.8612 27.1703 18.8687C27.167 18.8752 27.1642 18.8794 27.1656 18.8773C27.1668 18.8753 27.1751 18.8629 27.1838 18.8482L27.0287 18.7568ZM27.0179 18.8301L26.8474 18.8878C27.0879 19.5982 27.337 20.395 27.5981 21.1033L27.767 21.041L27.9359 20.9788C27.6768 20.276 27.433 19.4949 27.1884 18.7724L27.0179 18.8301ZM27.767 21.041L27.764 21.221C28.0962 21.2265 28.429 21.2256 28.7613 21.218L28.7572 21.0381L28.7531 20.8581C28.4256 20.8656 28.0975 20.8665 27.77 20.861L27.767 21.041ZM28.7572 21.0381L28.937 21.0476C28.9769 20.2938 29.026 19.5099 29.0523 18.7523L28.8724 18.7461L28.6925 18.7398C28.6664 19.493 28.6177 20.27 28.5775 21.0286L28.7572 21.0381ZM28.8724 18.7461L28.8739 18.5661C28.3201 18.5615 27.6695 18.5489 27.1104 18.5652L27.1156 18.7451L27.1208 18.925C27.6711 18.909 28.3106 18.9214 28.8709 18.9261L28.8724 18.7461ZM4.12732 18.7451L4.1145 18.5656L4.00512 18.5734L4.01794 18.7529L4.03077 18.9325L4.14014 18.9247L4.12732 18.7451ZM4.01794 18.7529L3.86774 18.6537C3.84966 18.6811 3.84167 18.7081 3.83819 18.7211C3.83389 18.737 3.83105 18.7529 3.82903 18.7667C3.82497 18.7945 3.82245 18.8268 3.8208 18.8603C3.81745 18.9281 3.81697 19.0159 3.81835 19.1151C3.82113 19.3144 3.83163 19.5714 3.84477 19.8323C3.87105 20.3543 3.90842 20.9015 3.91738 21.0481L4.09705 21.0371L4.27671 21.0261C4.26752 20.8757 4.23047 20.3337 4.20431 19.8142C4.19123 19.5544 4.181 19.3027 4.17832 19.1101C4.17697 19.0134 4.17758 18.9345 4.18036 18.8781C4.18177 18.8495 4.18358 18.8302 4.18526 18.8187C4.1861 18.8129 4.18648 18.8122 4.18578 18.8148C4.18539 18.8162 4.1843 18.8201 4.18215 18.8255C4.18018 18.8305 4.17591 18.8404 4.16815 18.8521L4.01794 18.7529ZM4.09705 21.0371L4.09344 21.2171C4.42675 21.2237 4.76066 21.2245 5.09416 21.219L5.09119 21.0391L5.08821 20.8591C4.75926 20.8645 4.42974 20.8637 4.10065 20.8571L4.09705 21.0371ZM5.09119 21.0391L5.26139 21.0976L5.42839 20.6123L5.25818 20.5537L5.08797 20.4951L4.92098 20.9805L5.09119 21.0391ZM5.25818 20.5537L5.42826 20.6126C5.63657 20.0115 5.84035 19.4087 6.03949 18.8044L5.86853 18.748L5.69757 18.6917C5.49901 19.2943 5.29582 19.8954 5.0881 20.4948L5.25818 20.5537ZM5.86853 18.748L5.87427 18.5681C5.30114 18.5498 4.69402 18.5617 4.12623 18.5651L4.12732 18.7451L4.12841 18.9251C4.70319 18.9216 5.29869 18.9099 5.86279 18.9279L5.86853 18.748ZM30.1986 8.00878L30.2112 7.82922C29.6862 7.79253 29.0608 7.76167 28.5147 7.91988L28.5648 8.09277L28.6149 8.26566C29.0911 8.12768 29.6553 8.15124 30.1861 8.18834L30.1986 8.00878ZM28.5648 8.09277L28.5142 7.92003C27.6327 8.17824 27.0512 9.00511 26.9849 9.88788L27.1644 9.90136L27.3439 9.91484C27.4005 9.16183 27.8959 8.47628 28.6154 8.26551L28.5648 8.09277ZM27.1644 9.90136L26.9849 9.88783C26.9622 10.1895 26.96 10.4952 26.9614 10.796C26.9628 11.099 26.9678 11.3946 26.9601 11.6867L27.14 11.6914L27.32 11.6961C27.3278 11.3967 27.3228 11.0914 27.3214 10.7943C27.32 10.4951 27.3223 10.2014 27.3439 9.91489L27.1644 9.90136ZM27.14 11.6914L26.9601 11.6876C26.9582 11.7764 26.963 11.9195 26.9627 12.0309C26.9624 12.1556 26.9566 12.2783 26.9363 12.3848C26.9155 12.4938 26.8831 12.5654 26.8452 12.6062C26.8153 12.6384 26.7697 12.6657 26.6741 12.6584L26.6605 12.8379L26.6469 13.0174C26.839 13.0319 26.9962 12.9727 27.109 12.8512C27.2137 12.7385 27.2637 12.5895 27.2899 12.4523C27.3166 12.3125 27.3223 12.1633 27.3227 12.0319C27.3231 11.8871 27.318 11.7897 27.32 11.6952L27.14 11.6914ZM26.6605 12.8379L26.6745 12.6584C26.5878 12.6517 26.5474 12.6252 26.5178 12.5932C26.4792 12.5515 26.4473 12.4879 26.4019 12.379L26.2357 12.4482L26.0696 12.5175C26.113 12.6217 26.1658 12.7429 26.2536 12.8378C26.3504 12.9423 26.4781 13.0042 26.6465 13.0173L26.6605 12.8379ZM26.2357 12.4482L26.4016 12.3784L26.3938 12.3598L26.2279 12.4297L26.062 12.4995L26.0698 12.5181L26.2357 12.4482ZM26.2279 12.4297L26.3112 12.2701C26.0939 12.1567 25.9347 12.0828 25.6464 12.0788L25.6439 12.2588L25.6414 12.4388C25.8461 12.4416 25.9456 12.4853 26.1446 12.5892L26.2279 12.4297ZM25.6439 12.2588L25.6465 12.0788C24.9074 12.0684 24.1638 12.0733 23.428 12.0739L23.4281 12.2539L23.4282 12.4339C24.1669 12.4333 24.9059 12.4284 25.6414 12.4388L25.6439 12.2588ZM23.4281 12.2539V12.0739H19.4408V12.2539V12.4339H23.4281V12.2539ZM19.4408 12.2539L19.4408 12.0739L10.7035 12.0719L10.7035 12.2519L10.7035 12.4319L19.4408 12.4339L19.4408 12.2539ZM10.7035 12.2519L10.7035 12.0719C10.4376 12.0719 9.60494 12.0555 8.76406 12.0529C8.34926 12.0517 7.93879 12.0539 7.61102 12.0636C7.44731 12.0684 7.30231 12.0751 7.18685 12.0843C7.07942 12.0929 6.97587 12.105 6.91029 12.1277L6.96912 12.2978L7.02794 12.468C7.02793 12.468 7.02921 12.4675 7.03213 12.4668C7.03498 12.466 7.03888 12.4651 7.04394 12.464C7.05418 12.4618 7.06759 12.4595 7.08449 12.457C7.11841 12.4521 7.1622 12.4475 7.21561 12.4432C7.32233 12.4346 7.46048 12.4281 7.6216 12.4234C7.94347 12.4139 8.34931 12.4117 8.76297 12.4129C9.57898 12.4154 10.4517 12.4319 10.7035 12.4319V12.2519ZM6.96912 12.2978L6.91018 12.1278C6.7867 12.1706 6.69257 12.2501 6.61938 12.3251C6.58244 12.3629 6.5482 12.4025 6.51737 12.4387C6.48533 12.4763 6.45804 12.509 6.42978 12.5402C6.37224 12.6038 6.32934 12.6395 6.29064 12.6568C6.2608 12.6701 6.22358 12.6771 6.16028 12.6546L6.09998 12.8242L6.03967 12.9938C6.18504 13.0455 6.31819 13.0386 6.43719 12.9856C6.54733 12.9365 6.63172 12.8535 6.6967 12.7817C6.7297 12.7453 6.76247 12.7061 6.7914 12.6722C6.82153 12.6368 6.84915 12.6051 6.87706 12.5765C6.93358 12.5185 6.98112 12.4842 7.02805 12.4679L6.96912 12.2978ZM6.09998 12.8242L6.16024 12.6546C6.10852 12.6362 6.05828 12.5823 6.0229 12.4902L5.85486 12.5547L5.68682 12.6192C5.74088 12.76 5.84795 12.9257 6.03972 12.9938L6.09998 12.8242ZM5.85486 12.5547L6.02292 12.4902C5.98672 12.3958 5.97128 12.2812 5.96629 12.1489C5.96097 12.0078 5.96736 11.8903 5.96551 11.7428L5.78552 11.7451L5.60554 11.7474C5.60694 11.8588 5.60134 12.0244 5.60655 12.1625C5.61209 12.3095 5.62968 12.4702 5.68679 12.6191L5.85486 12.5547ZM5.78552 11.7451L5.96551 11.7429C5.95781 11.1298 6.00719 10.3718 5.88134 9.70156C5.75266 9.01623 5.43546 8.38174 4.67519 8.02097L4.59802 8.18359L4.52085 8.34621C5.1436 8.64172 5.41219 9.15375 5.52752 9.76799C5.64569 10.3973 5.59731 11.0919 5.60554 11.7474L5.78552 11.7451ZM4.59802 8.18359L4.67518 8.02096C4.30094 7.84341 3.90422 7.79977 3.51645 7.80931L3.52087 7.98925L3.5253 8.1692C3.8819 8.16043 4.21626 8.2017 4.52087 8.34621L4.59802 8.18359ZM3.52087 7.98925L3.52115 7.80925C3.00574 7.80847 2.50541 7.76958 1.97044 8.04615L2.0531 8.20605L2.13576 8.36594C2.5753 8.13871 2.97194 8.16842 3.5206 8.16925L3.52087 7.98925ZM2.0531 8.20605L1.97043 8.04616C1.61994 8.22737 1.36849 8.44997 1.1956 8.70705C1.02297 8.96375 0.934959 9.24548 0.897504 9.53603C0.824169 10.1049 0.944047 10.7409 1.01915 11.3153L1.19763 11.292L1.37611 11.2686C1.29641 10.6591 1.18897 10.0908 1.25455 9.58206C1.28655 9.3338 1.35955 9.10837 1.49433 8.90794C1.62886 8.7079 1.83122 8.52341 2.13577 8.36594L2.0531 8.20605ZM1.19763 11.292L1.01927 11.3162L1.34837 13.7371L1.52673 13.7129L1.70509 13.6886L1.37599 11.2677L1.19763 11.292ZM1.52673 13.7129L1.34834 13.7369L1.5876 15.5133L1.76599 15.4893L1.94438 15.4652L1.70512 13.6889L1.52673 13.7129ZM1.76599 15.4893L1.58763 15.5135C1.68785 16.2502 1.69963 16.8941 2.34278 17.509L2.46716 17.3789L2.59155 17.2488C2.05783 16.7385 2.05007 16.2421 1.94435 15.465L1.76599 15.4893ZM2.46716 17.3789L2.34278 17.509C2.65646 17.8089 3.0592 17.9981 3.49006 18.0489L3.51111 17.8701L3.53216 17.6913C3.17875 17.6497 2.8486 17.4945 2.59155 17.2488L2.46716 17.3789ZM3.51111 17.8701L3.48904 18.0488C3.76249 18.0825 4.31497 18.0713 4.57733 18.0716L4.57752 17.8916L4.5777 17.7116C4.29136 17.7113 3.77768 17.7217 3.53318 17.6915L3.51111 17.8701ZM4.57752 17.8916V18.0716H6.39978V17.8916V17.7116H4.57752V17.8916ZM6.39978 17.8916L6.39984 18.0716L12.4008 18.0696L12.4008 17.8896L12.4007 17.7096L6.39972 17.7116L6.39978 17.8916ZM12.4008 17.8896L12.4007 18.0696L23.4671 18.0706L23.4672 17.8906L23.4672 17.7106L12.4008 17.7096L12.4008 17.8896ZM23.4672 17.8906V18.0706H27.1371V17.8906V17.7106H23.4672V17.8906ZM27.1371 17.8906V18.0706C27.8028 18.0706 28.4749 18.074 29.1435 18.0647L29.141 17.8848L29.1385 17.7048C28.4732 17.714 27.8052 17.7106 27.1371 17.7106V17.8906ZM29.141 17.8848L29.1435 18.0647C29.6972 18.0571 30.2182 17.8315 30.6008 17.4275L30.4701 17.3037L30.3394 17.1799C30.0243 17.5127 29.596 17.6985 29.1385 17.7048L29.141 17.8848ZM30.4701 17.3037L30.6008 17.4275C31.1371 16.861 31.1637 16.2349 31.2529 15.5891L31.0746 15.5644L30.8963 15.5398C30.8015 16.2262 30.7794 16.7152 30.3394 17.1799L30.4701 17.3037ZM31.0746 15.5644L31.2529 15.5891C31.3122 15.1603 31.3607 14.7226 31.4262 14.3042L31.2484 14.2764L31.0706 14.2485C31.0047 14.6689 30.9534 15.1263 30.8963 15.5398L31.0746 15.5644ZM31.2484 14.2764L31.4267 14.3011L31.8007 11.6028L31.6224 11.5781L31.4441 11.5534L31.0701 14.2516L31.2484 14.2764ZM31.6224 11.5781L31.8007 11.6032C31.8334 11.3704 31.8939 10.9938 31.94 10.6315C31.9855 10.273 32.0213 9.8984 31.9989 9.66447L31.8197 9.68163L31.6405 9.6988C31.6585 9.88622 31.6292 10.221 31.5828 10.5861C31.537 10.9472 31.4787 11.3082 31.4442 11.553L31.6224 11.5781ZM31.8197 9.68163L31.9988 9.66357C31.9594 9.2729 31.8141 8.90009 31.5778 8.58609L31.434 8.69433L31.2901 8.80257C31.4867 9.0638 31.6078 9.37418 31.6406 9.6997L31.8197 9.68163ZM31.434 8.69433L31.5769 8.58492C31.2735 8.18853 30.729 7.86542 30.2112 7.82922L30.1986 8.00878L30.1861 8.18834C30.5904 8.21661 31.0437 8.48066 31.291 8.80374L31.434 8.69433ZM8.6615 1.04687L8.66176 0.866869C8.57747 0.866748 8.44589 0.86519 8.28929 0.863528C8.13332 0.861872 7.95372 0.86013 7.77529 0.859684C7.4254 0.858808 7.06058 0.862631 6.89592 0.885127L6.92029 1.06347L6.94465 1.24181C7.07867 1.2235 7.41372 1.21878 7.77439 1.21968C7.95126 1.22013 8.12962 1.22185 8.28547 1.22351C8.44069 1.22515 8.57479 1.22674 8.66124 1.22687L8.6615 1.04687ZM6.92029 1.06347L6.89517 0.885232C6.02894 1.00731 5.31254 1.36061 4.76757 2.08623L4.9115 2.19433L5.05543 2.30243C5.53307 1.66645 6.1562 1.35293 6.94541 1.24171L6.92029 1.06347ZM4.9115 2.19433L4.76748 2.08636C4.5033 2.43875 4.31647 2.84327 4.21933 3.27279L4.3949 3.31249L4.57046 3.3522C4.65643 2.97209 4.82178 2.61409 5.05552 2.3023L4.9115 2.19433ZM4.3949 3.31249L4.21931 3.2729C4.09973 3.80319 4.12854 4.48937 4.12896 5.00405L4.30896 5.0039L4.48896 5.00375C4.48852 4.45871 4.46239 3.83145 4.57049 3.35209L4.3949 3.31249ZM4.30896 5.0039L4.12896 5.00406L4.13091 7.19449L4.31091 7.19433L4.49091 7.19417L4.48896 5.00374L4.30896 5.0039ZM4.31091 7.19433L4.268 7.36914C4.75652 7.48908 5.05477 7.62288 5.44261 7.93761L5.55603 7.79785L5.66945 7.65808C5.23435 7.30499 4.88587 7.15014 4.35383 7.01952L4.31091 7.19433ZM5.55603 7.79785L5.44258 7.9376C6.56429 8.84816 6.44007 10.0751 6.46297 11.5039L6.64294 11.501L6.82292 11.4981C6.80119 10.1421 6.95093 8.69835 5.66948 7.6581L5.55603 7.79785ZM6.64294 11.501L6.68731 11.6754C6.94251 11.6105 7.09869 11.5869 7.35989 11.5853L7.35877 11.4053L7.35765 11.2253C7.06318 11.2271 6.87778 11.2555 6.59858 11.3265L6.64294 11.501ZM7.35877 11.4053L7.35992 11.5853C8.84612 11.5758 10.3391 11.5808 11.8265 11.5814L11.8265 11.4014L11.8266 11.2214C10.3406 11.2208 8.84544 11.2158 7.35761 11.2253L7.35877 11.4053ZM11.8265 11.4014V11.5814H24.2025V11.4014V11.2214H11.8265V11.4014ZM24.2025 11.4014V11.5814C24.3729 11.5814 24.7453 11.5762 25.122 11.5776C25.3082 11.5782 25.4909 11.5805 25.6423 11.5858C25.799 11.5912 25.9076 11.5995 25.9551 11.6091L25.9906 11.4326L26.0261 11.2561C25.9448 11.2398 25.8063 11.2313 25.6548 11.226C25.4979 11.2205 25.3109 11.2182 25.1232 11.2176C24.752 11.2162 24.3592 11.2214 24.2025 11.2214V11.4014ZM25.9906 11.4326L25.9436 11.6064L26.2327 11.6845L26.2797 11.5107L26.3266 11.337L26.0376 11.2588L25.9906 11.4326ZM26.2797 11.5107L26.4597 11.5112C26.4632 10.1615 26.3346 9.03032 27.2894 8.08075L27.1625 7.95312L27.0355 7.82549C25.9508 8.90435 26.103 10.2257 26.0997 11.5103L26.2797 11.5107ZM27.1625 7.95312L27.2894 8.08072C27.6528 7.71921 28.0903 7.50184 28.5977 7.38116L28.556 7.20605L28.5144 7.03093C27.9549 7.164 27.4542 7.40894 27.0355 7.82552L27.1625 7.95312ZM28.556 7.20605L28.736 7.20639L28.7399 5.17417L28.5599 5.17382L28.3799 5.17348L28.376 7.2057L28.556 7.20605ZM28.5599 5.17382L28.7399 5.17407C28.7416 3.95736 28.8612 2.79922 27.8379 1.77143L27.7103 1.89843L27.5828 2.02543C28.4798 2.92641 28.3817 3.90702 28.3799 5.17357L28.5599 5.17382ZM27.7103 1.89843L27.8379 1.77143C27.3548 1.2862 26.877 1.05592 26.3637 0.950671C25.862 0.84781 25.3259 0.865675 24.7464 0.865892L24.7465 1.04589L24.7465 1.22589C25.3473 1.22567 25.8352 1.20981 26.2914 1.30334C26.7359 1.39447 27.1499 1.59068 27.5828 2.02543L27.7103 1.89843ZM24.7465 1.04589L24.7464 0.865892L12.2152 0.866869L12.2152 1.04687L12.2152 1.22687L24.7465 1.22589L24.7465 1.04589ZM12.2152 1.04687V0.866869H8.6615V1.04687V1.22687H12.2152V1.04687Z" fill="black" mask="url(#path-1-outside-1_81_278)"/>
</svg>
