<svg width="23" height="25" viewBox="0 0 23 25" fill="none" xmlns="http://www.w3.org/2000/svg">
<path fill-rule="evenodd" clip-rule="evenodd" d="M19.1078 0.00888243C20.2456 -0.00759572 21.1906 -0.0826679 22.0648 0.788179C22.6851 1.40623 22.8855 2.10424 22.8881 2.94931L22.8812 15.756L22.8802 19.4727C22.8817 20.9935 23.0334 23.0068 21.8549 24.17C21.5573 24.4644 21.1733 24.6577 20.7592 24.7227C20.4472 24.7717 19.4647 24.7521 19.1127 24.752L15.7416 24.7511L3.6488 24.7491C2.91095 24.7141 2.19947 24.464 1.60291 24.0304C-0.254019 22.6793 0.0125953 20.4435 0.014038 18.4366L0.0150145 13.0753L0.014038 6.35361L0.0120848 4.28623C0.0103798 3.37174 -0.0978743 2.5762 0.480835 1.80185C0.861695 1.29861 1.42771 0.96643 2.05408 0.877046C2.5524 0.806444 3.77479 0.84158 4.33435 0.84189L8.61755 0.840914L13.1342 0.838961C13.8998 0.838735 14.7549 0.813571 15.514 0.874117C15.9264 0.907019 16.3366 1.13464 16.6644 1.37802C17.137 0.587874 17.8254 0.14969 18.7338 0.0235309C18.8581 0.0144122 18.9832 0.009622 19.1078 0.00888243ZM16.5541 22.422C16.1298 22.7438 15.7151 22.9427 15.1908 22.9581C14.4234 22.9802 13.6466 22.9694 12.8793 22.9688H3.96521C3.11736 22.9686 2.19818 23.0683 1.40076 22.7511C2.30918 23.9847 3.16933 24.0368 4.51892 24.0352L6.39783 24.0323L16.2279 24.0313L19.0033 24.0352C19.747 24.0371 20.7036 24.1975 21.2572 23.6065C21.3407 23.5186 21.4181 23.4239 21.4867 23.3224C20.5354 23.7249 19.6713 23.5466 18.6722 23.5802C18.5263 23.585 18.3669 23.5717 18.222 23.5499C18.0043 23.516 17.7915 23.4516 17.5892 23.3585C17.2543 23.2049 17.0609 23.0285 16.8177 22.7354C16.7642 22.6708 16.61 22.4428 16.5541 22.422ZM19.1039 0.949312C18.123 1.03104 17.377 1.60399 17.3041 2.61826C17.2762 3.00854 17.2887 3.39671 17.2885 3.78818V20.3595C17.2887 20.5041 17.2973 20.6882 17.2894 20.8292C17.1721 22.9698 18.679 22.626 20.2562 22.6446C20.7493 22.6474 21.1368 22.6255 21.5121 22.2628C21.9396 21.849 21.9174 21.356 21.9203 20.8106C21.9232 20.2141 21.9233 19.6176 21.9242 19.0216L21.9291 14.3253L21.9437 6.8331C21.9489 5.46402 21.9571 4.08773 21.9515 2.71787C21.9494 2.2279 21.7481 1.75196 21.3783 1.41123C20.7459 0.828658 19.9213 0.939568 19.1039 0.949312ZM4.44177 1.87705C3.8021 1.87662 2.97418 1.85388 2.349 1.88779C1.61494 2.04474 1.20525 2.49827 1.18884 3.25595C1.17868 3.7271 1.18471 4.19881 1.18494 4.67002V7.27841L1.18591 15.3233L1.18494 19.1183C1.1844 20.3392 0.900117 21.9302 2.65662 21.9513C3.08897 21.9563 3.5239 21.9535 3.95642 21.9532L6.65662 21.9513L15.2787 21.9503C15.7078 21.9008 15.9851 21.7947 16.2699 21.4425C16.2922 21.4149 16.3144 21.3865 16.3353 21.3575L16.348 2.53232C16.0724 2.03307 15.6441 1.87373 15.097 1.87314C14.3644 1.87232 13.6315 1.8738 12.8988 1.87509L8.11462 1.87607L4.44177 1.87705ZM8.63806 18.9181C9.83105 19.071 8.43532 20.4126 7.95837 20.5528C7.76811 20.5291 7.50546 20.4234 7.47693 20.2013C7.41681 19.7294 8.09819 19.2643 8.41443 18.9825C8.44798 18.9525 8.59323 18.9258 8.63806 18.9181ZM12.7933 17.0509C13.2166 17.0324 13.4204 17.2927 13.7074 17.5265C14.1373 17.8766 14.592 18.3602 13.8588 18.6827C13.3865 18.7118 13.223 18.4477 12.8998 18.1974C12.4607 17.8573 12.0383 17.3427 12.7933 17.0509ZM3.84802 15.8829C4.20671 15.8642 4.34885 16.0801 4.59509 16.297C4.97886 16.6348 5.49912 17.2013 4.77576 17.5147C4.50016 17.5343 4.33695 17.3776 4.1449 17.1983C3.76734 16.8459 3.08768 16.275 3.84802 15.8829ZM10.6849 13.546C11.95 13.6002 10.5947 14.9878 10.1146 15.1808C8.8313 15.1494 10.1765 13.6938 10.6849 13.546ZM7.27673 10.5118C7.49252 10.502 7.7778 10.5479 7.90173 10.7403C8.15558 11.1351 7.08234 12.0211 6.73083 12.1427C6.30264 12.1665 5.94251 11.9636 6.11658 11.5645C6.24513 11.2705 6.97047 10.6443 7.27673 10.5118ZM13.6332 7.94736C13.8715 7.91917 14.2195 7.97638 14.2455 8.28623C14.2782 8.67907 13.5066 9.42075 13.1869 9.57236C12.7992 9.60937 12.505 9.34099 12.6488 8.96494C12.7441 8.71633 13.4135 8.04734 13.6332 7.94736ZM4.05896 6.30869C4.46735 6.27602 4.62623 6.53653 4.90759 6.79404C5.29197 7.14581 5.65323 7.59366 5.04919 7.93759C4.67421 7.96912 4.52307 7.75858 4.26599 7.52158C3.88654 7.17169 3.40488 6.67168 4.05896 6.30869ZM10.4174 4.20615C10.814 4.18185 10.9801 4.36459 11.2582 4.58798C11.6787 4.92552 12.3288 5.47612 11.5375 5.83408C11.1352 5.87554 10.931 5.64545 10.6595 5.42392C10.222 5.06697 9.65388 4.57082 10.4174 4.20615Z" fill="black"/>
</svg>
