<svg width="194" height="110" viewBox="0 0 194 110" fill="none" xmlns="http://www.w3.org/2000/svg">
<path d="M168.014 33.4876C171.276 31.0932 175.403 30.2216 179.381 30.8587C183.691 31.5218 187.551 33.8908 190.094 37.432C196.328 46.2395 192.275 58.6067 182.351 62.4515C176.727 64.6309 177.289 67.9864 176.416 72.9769C175.958 76.5583 175.631 79.6247 173.668 82.7982C170.628 87.7093 165.003 89.4874 159.706 90.7542L162.953 100.08C163.672 102.154 165.493 106.021 164.075 108.022C162.884 109.7 160.136 109.249 158.657 108.16C154.565 105.142 151.878 99.5133 148.763 95.5472C146.309 92.4215 145.132 89.6853 140.698 89.6771C132.104 89.6608 123.577 89.6742 115.017 89.6742L64.4372 89.6722L44.1022 89.6771C36.6126 89.6771 28.9787 90.4583 22.6999 85.6439C17.4359 81.6068 16.6833 76.6329 16.2409 70.5306C15.9517 66.5424 14.1302 63.8059 10.485 62.2582C9.06308 61.6533 7.23603 60.6643 5.95376 59.6703C2.72947 57.1727 0.636371 53.4903 0.141263 49.4417C-0.939571 40.721 4.26346 32.8318 12.9508 31.0267C13.6389 30.8837 14.3731 30.8064 15.071 30.724C16.247 30.6083 17.4331 30.6813 18.5963 30.8695C21.6193 31.3585 24.267 32.6946 26.4733 34.8207C31.2829 39.4552 32.4883 46.1166 33.5592 52.4134C34.1767 56.0425 34.861 59.8745 37.0856 62.9105C40.0249 66.9232 44.405 68.0319 49.0631 68.723C57.8333 70.026 66.6943 69.2904 75.5094 69.0794C88.986 68.7566 102.455 68.3069 115.938 68.2289C121.72 68.1962 127.57 68.2279 133.346 68.4505C137.138 68.5962 142.319 69.2067 146.031 68.7044C149.362 68.2546 152.624 66.6406 154.88 64.1302C161.603 56.6456 157.526 41.1847 168.014 33.4876ZM33.4538 92.723C37.5695 93.0004 43.0817 93.1897 47.2174 93.2503C46.3027 94.5358 44.8444 96.2285 43.819 97.4906L37.6647 105.06C36.2856 106.824 35.1206 108.341 32.8004 108.91C31.8035 109.154 30.3846 109.252 29.4772 108.668C28.8044 108.236 28.5857 107.543 28.443 106.809C28.3444 106.302 28.374 105.144 28.5602 104.707C29.3855 102.768 32.6696 93.8592 33.4538 92.723ZM64.1735 0.0911592C73.8026 -0.278641 88.9509 0.0129663 93.8502 10.1761C95.4957 13.5883 95.2142 18.4167 93.8844 21.9144C92.2191 26.2956 89.2011 28.957 84.9792 30.8392C87.3821 31.9334 90.0614 33.1366 92.0846 34.8578C95.0026 37.323 96.8187 40.85 97.1276 44.6576C98.3199 60.9512 79.0205 64.3873 66.6676 65.2054C61.9152 65.6436 48.0401 65.0466 44.0251 63.1341C41.9928 62.1913 40.3505 60.5718 39.3805 58.5521C38.2888 56.2993 37.193 49.305 36.6149 46.5687C35.9428 42.569 34.7879 38.6292 32.3727 35.2835C28.5547 29.9949 24.2847 29.3186 24.1608 21.8783C24.0592 17.1322 25.8838 12.5473 29.2194 9.16928C36.4362 1.84632 54.1371 0.194453 64.1735 0.0911592ZM116.126 1.88608C121.37 1.4568 126.645 4.01091 126.258 9.973C126.002 13.9044 124.922 17.8185 125.017 21.7591C125.142 26.9364 130.086 28.6455 133.915 25.5677C140.028 20.8435 138.6 11.7636 142.91 5.95835C144.442 3.86102 146.747 2.45995 149.316 2.06577C153.132 1.51185 156.987 3.19562 159.987 5.44272C164.695 8.9687 167.571 14.0982 168.373 19.8988C168.846 23.3182 168.41 27.0797 165.938 29.6839C164.903 30.7744 163.681 31.6799 162.641 32.7757C160.632 34.8923 159.192 37.2446 158.131 39.9603C156.129 45.087 154.998 56.6297 152.132 60.3363C150.192 62.8467 147.42 64.0365 144.34 64.4339C144.104 64.4654 143.869 64.4913 143.632 64.5111C135.562 65.2337 131.256 59.2641 131.643 51.5873C131.86 47.2928 134.833 39.1175 126.86 39.9261C122.118 40.4073 120.345 43.9515 119.438 48.1263C118.67 51.6655 117.789 56.4126 115.612 59.346C113.281 62.4937 109.398 63.6723 105.674 64.0697C103.88 64.2678 94.9219 65.1346 94.3747 62.2074C94.1742 61.127 96.8056 58.7282 97.7077 57.6478C103.057 51.2402 103.169 42.8669 100.985 35.1654C99.8813 31.8286 99.0609 28.8618 98.5866 25.3646C97.1613 14.8724 104.546 3.08982 115.673 1.93784C115.823 1.91604 115.974 1.89878 116.126 1.88608ZM75.7829 42.8421C74.5448 39.4429 69.8842 37.5375 66.4313 37.93C65.2259 38.1552 64.0313 38.46 63.2692 39.514C62.6519 40.3701 62.0325 51.293 61.9069 53.3265C65.2565 54.1913 68.06 54.1948 71.2545 52.8499C75.3267 50.7649 77.4991 47.556 75.7829 42.8421ZM74.5758 12.1771C73.4139 11.7907 71.5001 11.531 70.2868 11.7113C65.653 12.6138 66.047 16.0527 65.5963 19.9447C65.3264 22.3386 65.0215 24.7288 64.6813 27.1136C67.3634 27.4749 69.8174 27.5389 72.3678 26.5306C75.0768 25.2805 76.8763 23.9308 78.0094 21.0716C79.3365 17.7229 78.2707 13.4059 74.5758 12.1771Z" fill="#4C2F1F"/>
</svg>
